<?xml version="1.0" encoding="utf-8"?>
<!-- Generator: Adobe Illustrator 16.0.0, SVG Export Plug-In . SVG Version: 6.00 Build 0)  -->
<!DOCTYPE svg PUBLIC "-//W3C//DTD SVG 1.1//EN" "http://www.w3.org/Graphics/SVG/1.1/DTD/svg11.dtd">
<svg version="1.1" id="Layer_1" xmlns="http://www.w3.org/2000/svg" xmlns:xlink="http://www.w3.org/1999/xlink" x="0px" y="0px"
	 width="50px" height="50px" viewBox="0 0 50 50" style="enable-background:new 0 0 50 50;" xml:space="preserve">
<style type="text/css">
<![CDATA[
	.st0{fill:#FFFFFF;}
]]>
</style>
<path class="st0" d="M10.298,5.22h29.404c2.793,0,5.078,2.285,5.078,5.078v29.404c0,2.793-2.285,5.078-5.078,5.078H10.298
	c-2.793,0-5.078-2.285-5.078-5.078V10.298C5.22,7.505,7.505,5.22,10.298,5.22L10.298,5.22z M34.037,9.616
	c-0.979,0-1.78,0.799-1.78,1.78v4.264c0,0.98,0.801,1.781,1.78,1.781h4.473c0.979,0,1.781-0.801,1.781-1.781v-4.264
	c0-0.98-0.802-1.78-1.781-1.78H34.037L34.037,9.616z M40.308,21.949h-3.481c0.33,1.076,0.508,2.216,0.508,3.396
	c0,6.58-5.506,11.915-12.296,11.915c-6.792,0-12.298-5.334-12.298-11.915c0-1.18,0.178-2.32,0.508-3.396H9.613v16.712
	c0,0.865,0.709,1.572,1.573,1.572h27.549c0.865,0,1.572-0.707,1.572-1.572V21.949L40.308,21.949z M25.038,17.216
	c-4.388,0-7.945,3.447-7.945,7.699s3.558,7.698,7.945,7.698c4.389,0,7.945-3.445,7.945-7.698S29.424,17.216,25.038,17.216z"/>
</svg>
