<?xml version="1.0" encoding="utf-8"?>
<!-- Generator: Adobe Illustrator 16.0.0, SVG Export Plug-In . SVG Version: 6.00 Build 0)  -->
<!DOCTYPE svg PUBLIC "-//W3C//DTD SVG 1.1//EN" "http://www.w3.org/Graphics/SVG/1.1/DTD/svg11.dtd">
<svg version="1.1" id="Layer_1" xmlns="http://www.w3.org/2000/svg" xmlns:xlink="http://www.w3.org/1999/xlink" x="0px" y="0px"
	 width="50px" height="50px" viewBox="0 0 50 50" style="enable-background:new 0 0 50 50;" xml:space="preserve">
<style type="text/css">
<![CDATA[
	.st0{fill:#FFFFFF;}
]]>
</style>
<path class="st0" d="M49.8,9.618c-1.826,0.809-3.786,1.356-5.846,1.601c2.104-1.26,3.715-3.253,4.476-5.628
	c-1.968,1.165-4.145,2.013-6.462,2.468c-1.856-1.978-4.501-3.213-7.428-3.213c-5.62,0-10.176,4.556-10.176,10.176
	c0,0.797,0.09,1.573,0.264,2.318C16.17,16.917,8.673,12.866,3.654,6.709c-0.876,1.502-1.379,3.25-1.379,5.115
	c0,3.531,1.798,6.646,4.528,8.47c-1.668-0.053-3.237-0.511-4.608-1.272c-0.001,0.041-0.001,0.084-0.001,0.127
	c0,4.93,3.507,9.043,8.162,9.979c-0.854,0.231-1.752,0.354-2.68,0.354c-0.655,0-1.293-0.063-1.915-0.182
	c1.295,4.044,5.053,6.985,9.506,7.065c-3.482,2.73-7.87,4.357-12.638,4.357c-0.82,0-1.63-0.047-2.427-0.143
	c4.503,2.888,9.852,4.572,15.599,4.572c18.718,0,28.952-15.506,28.952-28.953c0-0.44-0.01-0.878-0.029-1.316
	C46.711,13.451,48.437,11.657,49.8,9.618z"/>
</svg>
