<?xml version="1.0" encoding="utf-8"?>
<!-- Generator: Adobe Illustrator 15.0.0, SVG Export Plug-In . SVG Version: 6.00 Build 0)  -->
<!DOCTYPE svg PUBLIC "-//W3C//DTD SVG 1.1//EN" "http://www.w3.org/Graphics/SVG/1.1/DTD/svg11.dtd">
<svg version="1.1" id="Layer_1" xmlns="http://www.w3.org/2000/svg" xmlns:xlink="http://www.w3.org/1999/xlink" x="0px" y="0px"
	 width="289.646px" height="2.238px" viewBox="0 0 289.646 2.238" enable-background="new 0 0 289.646 2.238" xml:space="preserve">
<path fill="#4D4D4D" d="M-5,1.119C-5,0.501-4.498,0-3.881,0c0.617,0,1.119,0.501,1.119,1.119s-0.502,1.119-1.119,1.119
	C-4.498,2.238-5,1.737-5,1.119"/>
<path fill="#4D4D4D" d="M1.439,1.119C1.439,0.501,1.941,0,2.559,0c0.618,0,1.12,0.501,1.12,1.119s-0.502,1.119-1.12,1.119
	C1.941,2.238,1.439,1.737,1.439,1.119"/>
<path fill="#4D4D4D" d="M-11.441,1.119c0-0.618,0.502-1.119,1.119-1.119c0.617,0,1.119,0.501,1.119,1.119s-0.502,1.119-1.119,1.119
	C-10.939,2.238-11.441,1.737-11.441,1.119"/>
<path fill="#4D4D4D" d="M-5.002,1.119C-5.002,0.501-4.5,0-3.882,0c0.618,0,1.12,0.501,1.12,1.119s-0.502,1.119-1.12,1.119
	C-4.5,2.238-5.002,1.737-5.002,1.119"/>
<path fill="#4D4D4D" d="M-17.883,1.119c0-0.618,0.502-1.119,1.119-1.119c0.617,0,1.119,0.501,1.119,1.119s-0.502,1.119-1.119,1.119
	C-17.381,2.238-17.883,1.737-17.883,1.119"/>
<path fill="#4D4D4D" d="M-11.444,1.119c0-0.618,0.502-1.119,1.12-1.119c0.618,0,1.12,0.501,1.12,1.119s-0.502,1.119-1.12,1.119
	C-10.942,2.238-11.444,1.737-11.444,1.119"/>
<path fill="#4D4D4D" d="M-24.324,1.119c0-0.618,0.502-1.119,1.119-1.119c0.617,0,1.119,0.501,1.119,1.119s-0.502,1.119-1.119,1.119
	C-23.822,2.238-24.324,1.737-24.324,1.119"/>
<path fill="#4D4D4D" d="M-17.885,1.119c0-0.618,0.502-1.119,1.12-1.119c0.618,0,1.12,0.501,1.12,1.119s-0.502,1.119-1.12,1.119
	C-17.383,2.238-17.885,1.737-17.885,1.119"/>
<path fill="#4D4D4D" d="M-30.766,1.119c0-0.618,0.502-1.119,1.119-1.119c0.617,0,1.119,0.501,1.119,1.119s-0.502,1.119-1.119,1.119
	C-30.264,2.238-30.766,1.737-30.766,1.119"/>
<path fill="#4D4D4D" d="M-24.327,1.119c0-0.618,0.502-1.119,1.12-1.119c0.618,0,1.12,0.501,1.12,1.119s-0.502,1.119-1.12,1.119
	C-23.825,2.238-24.327,1.737-24.327,1.119"/>
<path fill="#4D4D4D" d="M7.345,1.119C7.345,0.501,7.847,0,8.465,0c0.617,0,1.119,0.501,1.119,1.119S9.082,2.238,8.465,2.238
	C7.847,2.238,7.345,1.737,7.345,1.119"/>
<path fill="#4D4D4D" d="M13.25,1.119C13.25,0.501,13.752,0,14.37,0c0.617,0,1.119,0.501,1.119,1.119s-0.502,1.119-1.119,1.119
	C13.752,2.238,13.25,1.737,13.25,1.119"/>
<path fill="#4D4D4D" d="M19.156,1.119c0-0.618,0.502-1.119,1.12-1.119c0.617,0,1.119,0.501,1.119,1.119s-0.502,1.119-1.119,1.119
	C19.658,2.238,19.156,1.737,19.156,1.119"/>
<path fill="#4D4D4D" d="M25.061,1.119c0-0.618,0.502-1.119,1.12-1.119C26.798,0,27.3,0.501,27.3,1.119s-0.502,1.119-1.119,1.119
	C25.563,2.238,25.061,1.737,25.061,1.119"/>
<path fill="#4D4D4D" d="M30.967,1.119c0-0.618,0.502-1.119,1.12-1.119c0.617,0,1.119,0.501,1.119,1.119s-0.502,1.119-1.119,1.119
	C31.469,2.238,30.967,1.737,30.967,1.119"/>
<path fill="#4D4D4D" d="M36.872,1.119c0-0.618,0.502-1.119,1.12-1.119c0.616,0,1.119,0.501,1.119,1.119s-0.503,1.119-1.119,1.119
	C37.374,2.238,36.872,1.737,36.872,1.119"/>
<path fill="#4D4D4D" d="M42.895,1.119C42.895,0.501,43.396,0,44.014,0c0.617,0,1.119,0.501,1.119,1.119s-0.502,1.119-1.119,1.119
	C43.396,2.238,42.895,1.737,42.895,1.119"/>
<path fill="#4D4D4D" d="M48.799,1.119c0-0.618,0.502-1.119,1.12-1.119c0.617,0,1.119,0.501,1.119,1.119s-0.502,1.119-1.119,1.119
	C49.301,2.238,48.799,1.737,48.799,1.119"/>
<path fill="#4D4D4D" d="M54.705,1.119c0-0.618,0.502-1.119,1.12-1.119c0.617,0,1.119,0.501,1.119,1.119s-0.502,1.119-1.119,1.119
	C55.207,2.238,54.705,1.737,54.705,1.119"/>
<path fill="#4D4D4D" d="M60.61,1.119C60.61,0.501,61.112,0,61.73,0c0.617,0,1.119,0.501,1.119,1.119s-0.502,1.119-1.119,1.119
	C61.112,2.238,60.61,1.737,60.61,1.119"/>
<path fill="#4D4D4D" d="M66.516,1.119c0-0.618,0.502-1.119,1.12-1.119c0.617,0,1.119,0.501,1.119,1.119s-0.502,1.119-1.119,1.119
	C67.018,2.238,66.516,1.737,66.516,1.119"/>
<path fill="#4D4D4D" d="M72.421,1.119c0-0.618,0.502-1.119,1.12-1.119s1.12,0.501,1.12,1.119s-0.502,1.119-1.12,1.119
	S72.421,1.737,72.421,1.119"/>
<path fill="#4D4D4D" d="M78.327,1.119c0-0.618,0.502-1.119,1.12-1.119c0.617,0,1.119,0.501,1.119,1.119s-0.502,1.119-1.119,1.119
	C78.829,2.238,78.327,1.737,78.327,1.119"/>
<path fill="#4D4D4D" d="M84.468,1.119C84.468,0.501,84.97,0,85.588,0c0.617,0,1.119,0.501,1.119,1.119s-0.502,1.119-1.119,1.119
	C84.97,2.238,84.468,1.737,84.468,1.119"/>
<path fill="#4D4D4D" d="M90.374,1.119c0-0.618,0.502-1.119,1.12-1.119c0.617,0,1.119,0.501,1.119,1.119s-0.502,1.119-1.119,1.119
	C90.876,2.238,90.374,1.737,90.374,1.119"/>
<path fill="#4D4D4D" d="M96.279,1.119c0-0.618,0.502-1.119,1.12-1.119c0.617,0,1.119,0.501,1.119,1.119s-0.502,1.119-1.119,1.119
	C96.781,2.238,96.279,1.737,96.279,1.119"/>
<path fill="#4D4D4D" d="M102.185,1.119c0-0.618,0.502-1.119,1.12-1.119c0.617,0,1.119,0.501,1.119,1.119s-0.502,1.119-1.119,1.119
	C102.687,2.238,102.185,1.737,102.185,1.119"/>
<path fill="#4D4D4D" d="M108.09,1.119c0-0.618,0.502-1.119,1.12-1.119c0.616,0,1.118,0.501,1.118,1.119s-0.502,1.119-1.118,1.119
	C108.592,2.238,108.09,1.737,108.09,1.119"/>
<path fill="#4D4D4D" d="M113.996,1.119c0-0.618,0.502-1.119,1.119-1.119c0.617,0,1.119,0.501,1.119,1.119s-0.502,1.119-1.119,1.119
	C114.498,2.238,113.996,1.737,113.996,1.119"/>
<path fill="#4D4D4D" d="M119.979,1.119c0-0.618,0.502-1.119,1.12-1.119c0.617,0,1.119,0.501,1.119,1.119s-0.502,1.119-1.119,1.119
	C120.481,2.238,119.979,1.737,119.979,1.119"/>
<path fill="#4D4D4D" d="M132.087,1.119c0-0.618,0.502-1.119,1.119-1.119s1.119,0.501,1.119,1.119s-0.502,1.119-1.119,1.119
	S132.087,1.737,132.087,1.119"/>
<path fill="#4D4D4D" d="M138.527,1.119c0-0.618,0.502-1.119,1.119-1.119c0.618,0,1.12,0.501,1.12,1.119s-0.502,1.119-1.12,1.119
	C139.029,2.238,138.527,1.737,138.527,1.119"/>
<path fill="#4D4D4D" d="M144.432,1.119c0-0.618,0.502-1.119,1.12-1.119c0.617,0,1.119,0.501,1.119,1.119s-0.502,1.119-1.119,1.119
	C144.934,2.238,144.432,1.737,144.432,1.119"/>
<path fill="#4D4D4D" d="M150.337,1.119c0-0.618,0.502-1.119,1.12-1.119c0.617,0,1.119,0.501,1.119,1.119s-0.502,1.119-1.119,1.119
	C150.839,2.238,150.337,1.737,150.337,1.119"/>
<path fill="#4D4D4D" d="M156.243,1.119c0-0.618,0.502-1.119,1.12-1.119c0.617,0,1.119,0.501,1.119,1.119s-0.502,1.119-1.119,1.119
	C156.745,2.238,156.243,1.737,156.243,1.119"/>
<path fill="#4D4D4D" d="M162.148,1.119c0-0.618,0.502-1.119,1.12-1.119c0.617,0,1.119,0.501,1.119,1.119s-0.502,1.119-1.119,1.119
	C162.65,2.238,162.148,1.737,162.148,1.119"/>
<path fill="#4D4D4D" d="M168.054,1.119c0-0.618,0.502-1.119,1.12-1.119c0.617,0,1.119,0.501,1.119,1.119s-0.502,1.119-1.119,1.119
	C168.556,2.238,168.054,1.737,168.054,1.119"/>
<path fill="#4D4D4D" d="M173.959,1.119c0-0.618,0.502-1.119,1.12-1.119c0.616,0,1.119,0.501,1.119,1.119s-0.503,1.119-1.119,1.119
	C174.461,2.238,173.959,1.737,173.959,1.119"/>
<path fill="#4D4D4D" d="M179.982,1.119c0-0.618,0.502-1.119,1.119-1.119c0.617,0,1.119,0.501,1.119,1.119s-0.502,1.119-1.119,1.119
	C180.484,2.238,179.982,1.737,179.982,1.119"/>
<path fill="#4D4D4D" d="M185.887,1.119c0-0.618,0.502-1.119,1.12-1.119c0.617,0,1.119,0.501,1.119,1.119s-0.502,1.119-1.119,1.119
	C186.389,2.238,185.887,1.737,185.887,1.119"/>
<path fill="#4D4D4D" d="M191.792,1.119c0-0.618,0.502-1.119,1.12-1.119c0.617,0,1.119,0.501,1.119,1.119s-0.502,1.119-1.119,1.119
	C192.294,2.238,191.792,1.737,191.792,1.119"/>
<path fill="#4D4D4D" d="M197.698,1.119c0-0.618,0.502-1.119,1.12-1.119c0.617,0,1.119,0.501,1.119,1.119s-0.502,1.119-1.119,1.119
	C198.2,2.238,197.698,1.737,197.698,1.119"/>
<path fill="#4D4D4D" d="M203.603,1.119c0-0.618,0.502-1.119,1.12-1.119c0.617,0,1.119,0.501,1.119,1.119s-0.502,1.119-1.119,1.119
	C204.105,2.238,203.603,1.737,203.603,1.119"/>
<path fill="#4D4D4D" d="M209.509,1.119c0-0.618,0.502-1.119,1.119-1.119c0.618,0,1.12,0.501,1.12,1.119s-0.502,1.119-1.12,1.119
	C210.011,2.238,209.509,1.737,209.509,1.119"/>
<path fill="#4D4D4D" d="M215.414,1.119c0-0.618,0.502-1.119,1.12-1.119c0.617,0,1.119,0.501,1.119,1.119s-0.502,1.119-1.119,1.119
	C215.916,2.238,215.414,1.737,215.414,1.119"/>
<path fill="#4D4D4D" d="M221.556,1.119c0-0.618,0.502-1.119,1.12-1.119c0.617,0,1.119,0.501,1.119,1.119s-0.502,1.119-1.119,1.119
	C222.058,2.238,221.556,1.737,221.556,1.119"/>
<path fill="#4D4D4D" d="M227.461,1.119c0-0.618,0.502-1.119,1.12-1.119c0.617,0,1.119,0.501,1.119,1.119s-0.502,1.119-1.119,1.119
	C227.963,2.238,227.461,1.737,227.461,1.119"/>
<path fill="#4D4D4D" d="M233.367,1.119c0-0.618,0.502-1.119,1.12-1.119c0.617,0,1.119,0.501,1.119,1.119s-0.502,1.119-1.119,1.119
	C233.869,2.238,233.367,1.737,233.367,1.119"/>
<path fill="#4D4D4D" d="M239.272,1.119c0-0.618,0.502-1.119,1.12-1.119c0.617,0,1.119,0.501,1.119,1.119s-0.502,1.119-1.119,1.119
	C239.774,2.238,239.272,1.737,239.272,1.119"/>
<path fill="#4D4D4D" d="M245.178,1.119c0-0.618,0.502-1.119,1.12-1.119c0.616,0,1.118,0.501,1.118,1.119s-0.502,1.119-1.118,1.119
	C245.68,2.238,245.178,1.737,245.178,1.119"/>
<path fill="#4D4D4D" d="M251.083,1.119c0-0.618,0.502-1.119,1.119-1.119c0.617,0,1.119,0.501,1.119,1.119s-0.502,1.119-1.119,1.119
	C251.585,2.238,251.083,1.737,251.083,1.119"/>
<path fill="#4D4D4D" d="M126.103,1.119c0-0.618,0.502-1.119,1.12-1.119c0.617,0,1.119,0.501,1.119,1.119s-0.502,1.119-1.119,1.119
	C126.605,2.238,126.103,1.737,126.103,1.119"/>
<path fill="#4D4D4D" d="M257.067,1.119c0-0.618,0.502-1.119,1.12-1.119c0.617,0,1.119,0.501,1.119,1.119s-0.502,1.119-1.119,1.119
	C257.569,2.238,257.067,1.737,257.067,1.119"/>
<path fill="#4D4D4D" d="M269.175,1.119c0-0.618,0.502-1.119,1.119-1.119s1.119,0.501,1.119,1.119s-0.502,1.119-1.119,1.119
	S269.175,1.737,269.175,1.119"/>
<path fill="#4D4D4D" d="M275.614,1.119c0-0.618,0.502-1.119,1.119-1.119c0.618,0,1.12,0.501,1.12,1.119s-0.502,1.119-1.12,1.119
	C276.116,2.238,275.614,1.737,275.614,1.119"/>
<path fill="#4D4D4D" d="M281.52,1.119c0-0.618,0.502-1.119,1.12-1.119c0.617,0,1.119,0.501,1.119,1.119s-0.502,1.119-1.119,1.119
	C282.021,2.238,281.52,1.737,281.52,1.119"/>
<path fill="#4D4D4D" d="M287.425,1.119c0-0.618,0.502-1.119,1.12-1.119c0.617,0,1.119,0.501,1.119,1.119s-0.502,1.119-1.119,1.119
	C287.927,2.238,287.425,1.737,287.425,1.119"/>
<path fill="#4D4D4D" d="M293.331,1.119c0-0.618,0.502-1.119,1.12-1.119c0.617,0,1.119,0.501,1.119,1.119s-0.502,1.119-1.119,1.119
	C293.833,2.238,293.331,1.737,293.331,1.119"/>
<path fill="#4D4D4D" d="M263.19,1.119c0-0.618,0.502-1.119,1.12-1.119c0.617,0,1.119,0.501,1.119,1.119s-0.502,1.119-1.119,1.119
	C263.692,2.238,263.19,1.737,263.19,1.119"/>
<path fill="#4D4D4D" d="M299.316,1.119c0-0.618,0.502-1.119,1.119-1.119s1.119,0.501,1.119,1.119s-0.502,1.119-1.119,1.119
	S299.316,1.737,299.316,1.119"/>
<path fill="#4D4D4D" d="M305.755,1.119c0-0.618,0.502-1.119,1.119-1.119c0.618,0,1.12,0.501,1.12,1.119s-0.502,1.119-1.12,1.119
	C306.257,2.238,305.755,1.737,305.755,1.119"/>
<path fill="#4D4D4D" d="M311.661,1.119c0-0.618,0.502-1.119,1.12-1.119c0.617,0,1.119,0.501,1.119,1.119s-0.502,1.119-1.119,1.119
	C312.162,2.238,311.661,1.737,311.661,1.119"/>
<path fill="#4D4D4D" d="M317.566,1.119c0-0.618,0.502-1.119,1.12-1.119c0.617,0,1.119,0.501,1.119,1.119s-0.502,1.119-1.119,1.119
	C318.068,2.238,317.566,1.737,317.566,1.119"/>
<path fill="#4D4D4D" d="M323.472,1.119c0-0.618,0.502-1.119,1.12-1.119c0.617,0,1.119,0.501,1.119,1.119s-0.502,1.119-1.119,1.119
	C323.974,2.238,323.472,1.737,323.472,1.119"/>
<path fill="#4D4D4D" d="M293.331,1.119c0-0.618,0.502-1.119,1.12-1.119c0.617,0,1.119,0.501,1.119,1.119s-0.502,1.119-1.119,1.119
	C293.833,2.238,293.331,1.737,293.331,1.119"/>
</svg>
