<?xml version="1.0" encoding="utf-8"?>
<!-- Generator: Adobe Illustrator 15.0.0, SVG Export Plug-In . SVG Version: 6.00 Build 0)  -->
<!DOCTYPE svg PUBLIC "-//W3C//DTD SVG 1.1//EN" "http://www.w3.org/Graphics/SVG/1.1/DTD/svg11.dtd">
<svg version="1.1" id="Layer_1" xmlns="http://www.w3.org/2000/svg" xmlns:xlink="http://www.w3.org/1999/xlink" x="0px" y="0px"
	 width="878.562px" height="2.238px" viewBox="0 0 878.562 2.238" enable-background="new 0 0 878.562 2.238" xml:space="preserve">
<path fill="#4D4D4D" d="M0,1.119C0,0.501,0.502,0,1.119,0c0.617,0,1.119,0.501,1.119,1.119S1.736,2.238,1.119,2.238
	C0.502,2.238,0,1.737,0,1.119"/>
<path fill="#4D4D4D" d="M6.439,1.119C6.439,0.501,6.941,0,7.559,0c0.618,0,1.12,0.501,1.12,1.119s-0.502,1.119-1.12,1.119
	C6.941,2.238,6.439,1.737,6.439,1.119"/>
<path fill="#4D4D4D" d="M12.345,1.119c0-0.618,0.502-1.119,1.12-1.119c0.617,0,1.119,0.501,1.119,1.119s-0.502,1.119-1.119,1.119
	C12.847,2.238,12.345,1.737,12.345,1.119"/>
<path fill="#4D4D4D" d="M18.25,1.119C18.25,0.501,18.752,0,19.37,0c0.617,0,1.119,0.501,1.119,1.119s-0.502,1.119-1.119,1.119
	C18.752,2.238,18.25,1.737,18.25,1.119"/>
<path fill="#4D4D4D" d="M24.156,1.119c0-0.618,0.502-1.119,1.12-1.119c0.617,0,1.119,0.501,1.119,1.119s-0.502,1.119-1.119,1.119
	C24.658,2.238,24.156,1.737,24.156,1.119"/>
<path fill="#4D4D4D" d="M30.061,1.119c0-0.618,0.502-1.119,1.12-1.119C31.798,0,32.3,0.501,32.3,1.119s-0.502,1.119-1.119,1.119
	C30.563,2.238,30.061,1.737,30.061,1.119"/>
<path fill="#4D4D4D" d="M-30.062,1.119C-30.062,0.501-29.56,0-28.943,0c0.617,0,1.119,0.501,1.119,1.119s-0.502,1.119-1.119,1.119
	C-29.56,2.238-30.062,1.737-30.062,1.119"/>
<path fill="#4D4D4D" d="M-23.623,1.119c0-0.618,0.502-1.119,1.119-1.119c0.618,0,1.12,0.501,1.12,1.119s-0.502,1.119-1.12,1.119
	C-23.121,2.238-23.623,1.737-23.623,1.119"/>
<path fill="#4D4D4D" d="M-17.717,1.119c0-0.618,0.502-1.119,1.12-1.119c0.617,0,1.119,0.501,1.119,1.119s-0.502,1.119-1.119,1.119
	C-17.215,2.238-17.717,1.737-17.717,1.119"/>
<path fill="#4D4D4D" d="M-11.812,1.119c0-0.618,0.502-1.119,1.12-1.119c0.617,0,1.119,0.501,1.119,1.119s-0.502,1.119-1.119,1.119
	C-11.31,2.238-11.812,1.737-11.812,1.119"/>
<path fill="#4D4D4D" d="M-48.313,1.119c0-0.618,0.502-1.119,1.119-1.119c0.617,0,1.119,0.501,1.119,1.119s-0.502,1.119-1.119,1.119
	C-47.811,2.238-48.313,1.737-48.313,1.119"/>
<path fill="#4D4D4D" d="M-41.874,1.119c0-0.618,0.502-1.119,1.119-1.119c0.618,0,1.12,0.501,1.12,1.119s-0.502,1.119-1.12,1.119
	C-41.372,2.238-41.874,1.737-41.874,1.119"/>
<path fill="#4D4D4D" d="M-35.968,1.119c0-0.618,0.502-1.119,1.12-1.119c0.617,0,1.119,0.501,1.119,1.119s-0.502,1.119-1.119,1.119
	C-35.466,2.238-35.968,1.737-35.968,1.119"/>
<path fill="#4D4D4D" d="M-5.906,1.119C-5.906,0.501-5.404,0-4.786,0c0.617,0,1.119,0.501,1.119,1.119s-0.502,1.119-1.119,1.119
	C-5.404,2.238-5.906,1.737-5.906,1.119"/>
<path fill="#4D4D4D" d="M35.967,1.119c0-0.618,0.502-1.119,1.12-1.119c0.617,0,1.119,0.501,1.119,1.119s-0.502,1.119-1.119,1.119
	C36.469,2.238,35.967,1.737,35.967,1.119"/>
<path fill="#4D4D4D" d="M41.872,1.119c0-0.618,0.502-1.119,1.12-1.119c0.616,0,1.119,0.501,1.119,1.119s-0.503,1.119-1.119,1.119
	C42.374,2.238,41.872,1.737,41.872,1.119"/>
<path fill="#4D4D4D" d="M47.895,1.119C47.895,0.501,48.396,0,49.014,0c0.617,0,1.119,0.501,1.119,1.119s-0.502,1.119-1.119,1.119
	C48.396,2.238,47.895,1.737,47.895,1.119"/>
<path fill="#4D4D4D" d="M53.799,1.119c0-0.618,0.502-1.119,1.12-1.119c0.617,0,1.119,0.501,1.119,1.119s-0.502,1.119-1.119,1.119
	C54.301,2.238,53.799,1.737,53.799,1.119"/>
<path fill="#4D4D4D" d="M59.705,1.119c0-0.618,0.502-1.119,1.12-1.119c0.617,0,1.119,0.501,1.119,1.119s-0.502,1.119-1.119,1.119
	C60.207,2.238,59.705,1.737,59.705,1.119"/>
<path fill="#4D4D4D" d="M65.61,1.119C65.61,0.501,66.112,0,66.73,0c0.617,0,1.119,0.501,1.119,1.119s-0.502,1.119-1.119,1.119
	C66.112,2.238,65.61,1.737,65.61,1.119"/>
<path fill="#4D4D4D" d="M71.516,1.119c0-0.618,0.502-1.119,1.12-1.119c0.617,0,1.119,0.501,1.119,1.119s-0.502,1.119-1.119,1.119
	C72.018,2.238,71.516,1.737,71.516,1.119"/>
<path fill="#4D4D4D" d="M77.421,1.119C77.421,0.501,77.923,0,78.541,0c0.618,0,1.12,0.501,1.12,1.119s-0.502,1.119-1.12,1.119
	C77.923,2.238,77.421,1.737,77.421,1.119"/>
<path fill="#4D4D4D" d="M83.327,1.119c0-0.618,0.502-1.119,1.12-1.119c0.617,0,1.119,0.501,1.119,1.119s-0.502,1.119-1.119,1.119
	C83.829,2.238,83.327,1.737,83.327,1.119"/>
<path fill="#4D4D4D" d="M89.468,1.119C89.468,0.501,89.97,0,90.588,0c0.617,0,1.119,0.501,1.119,1.119s-0.502,1.119-1.119,1.119
	C89.97,2.238,89.468,1.737,89.468,1.119"/>
<path fill="#4D4D4D" d="M95.374,1.119c0-0.618,0.502-1.119,1.12-1.119c0.617,0,1.119,0.501,1.119,1.119s-0.502,1.119-1.119,1.119
	C95.876,2.238,95.374,1.737,95.374,1.119"/>
<path fill="#4D4D4D" d="M101.279,1.119c0-0.618,0.502-1.119,1.12-1.119c0.617,0,1.119,0.501,1.119,1.119s-0.502,1.119-1.119,1.119
	C101.781,2.238,101.279,1.737,101.279,1.119"/>
<path fill="#4D4D4D" d="M107.185,1.119c0-0.618,0.502-1.119,1.12-1.119c0.617,0,1.119,0.501,1.119,1.119s-0.502,1.119-1.119,1.119
	C107.687,2.238,107.185,1.737,107.185,1.119"/>
<path fill="#4D4D4D" d="M113.09,1.119c0-0.618,0.502-1.119,1.12-1.119c0.616,0,1.118,0.501,1.118,1.119s-0.502,1.119-1.118,1.119
	C113.592,2.238,113.09,1.737,113.09,1.119"/>
<path fill="#4D4D4D" d="M118.996,1.119c0-0.618,0.502-1.119,1.119-1.119c0.617,0,1.119,0.501,1.119,1.119s-0.502,1.119-1.119,1.119
	C119.498,2.238,118.996,1.737,118.996,1.119"/>
<path fill="#4D4D4D" d="M124.979,1.119c0-0.618,0.502-1.119,1.12-1.119c0.617,0,1.119,0.501,1.119,1.119s-0.502,1.119-1.119,1.119
	C125.481,2.238,124.979,1.737,124.979,1.119"/>
<path fill="#4D4D4D" d="M137.087,1.119c0-0.618,0.502-1.119,1.119-1.119c0.617,0,1.119,0.501,1.119,1.119s-0.502,1.119-1.119,1.119
	C137.589,2.238,137.087,1.737,137.087,1.119"/>
<path fill="#4D4D4D" d="M143.527,1.119c0-0.618,0.502-1.119,1.119-1.119c0.618,0,1.12,0.501,1.12,1.119s-0.502,1.119-1.12,1.119
	C144.029,2.238,143.527,1.737,143.527,1.119"/>
<path fill="#4D4D4D" d="M149.432,1.119c0-0.618,0.502-1.119,1.12-1.119c0.617,0,1.119,0.501,1.119,1.119s-0.502,1.119-1.119,1.119
	C149.934,2.238,149.432,1.737,149.432,1.119"/>
<path fill="#4D4D4D" d="M155.337,1.119c0-0.618,0.502-1.119,1.12-1.119c0.617,0,1.119,0.501,1.119,1.119s-0.502,1.119-1.119,1.119
	C155.839,2.238,155.337,1.737,155.337,1.119"/>
<path fill="#4D4D4D" d="M161.243,1.119c0-0.618,0.502-1.119,1.12-1.119c0.617,0,1.119,0.501,1.119,1.119s-0.502,1.119-1.119,1.119
	C161.745,2.238,161.243,1.737,161.243,1.119"/>
<path fill="#4D4D4D" d="M167.148,1.119c0-0.618,0.502-1.119,1.12-1.119c0.617,0,1.119,0.501,1.119,1.119s-0.502,1.119-1.119,1.119
	C167.65,2.238,167.148,1.737,167.148,1.119"/>
<path fill="#4D4D4D" d="M173.054,1.119c0-0.618,0.502-1.119,1.12-1.119c0.617,0,1.119,0.501,1.119,1.119s-0.502,1.119-1.119,1.119
	C173.556,2.238,173.054,1.737,173.054,1.119"/>
<path fill="#4D4D4D" d="M178.959,1.119c0-0.618,0.502-1.119,1.12-1.119c0.616,0,1.119,0.501,1.119,1.119s-0.503,1.119-1.119,1.119
	C179.461,2.238,178.959,1.737,178.959,1.119"/>
<path fill="#4D4D4D" d="M184.982,1.119c0-0.618,0.502-1.119,1.119-1.119c0.617,0,1.119,0.501,1.119,1.119s-0.502,1.119-1.119,1.119
	C185.484,2.238,184.982,1.737,184.982,1.119"/>
<path fill="#4D4D4D" d="M190.887,1.119c0-0.618,0.502-1.119,1.12-1.119c0.617,0,1.119,0.501,1.119,1.119s-0.502,1.119-1.119,1.119
	C191.389,2.238,190.887,1.737,190.887,1.119"/>
<path fill="#4D4D4D" d="M196.792,1.119c0-0.618,0.502-1.119,1.12-1.119c0.617,0,1.119,0.501,1.119,1.119s-0.502,1.119-1.119,1.119
	C197.294,2.238,196.792,1.737,196.792,1.119"/>
<path fill="#4D4D4D" d="M202.698,1.119c0-0.618,0.502-1.119,1.12-1.119c0.617,0,1.119,0.501,1.119,1.119s-0.502,1.119-1.119,1.119
	C203.2,2.238,202.698,1.737,202.698,1.119"/>
<path fill="#4D4D4D" d="M208.603,1.119c0-0.618,0.502-1.119,1.12-1.119c0.617,0,1.119,0.501,1.119,1.119s-0.502,1.119-1.119,1.119
	C209.105,2.238,208.603,1.737,208.603,1.119"/>
<path fill="#4D4D4D" d="M214.509,1.119c0-0.618,0.502-1.119,1.119-1.119c0.618,0,1.12,0.501,1.12,1.119s-0.502,1.119-1.12,1.119
	C215.011,2.238,214.509,1.737,214.509,1.119"/>
<path fill="#4D4D4D" d="M220.414,1.119c0-0.618,0.502-1.119,1.12-1.119c0.617,0,1.119,0.501,1.119,1.119s-0.502,1.119-1.119,1.119
	C220.916,2.238,220.414,1.737,220.414,1.119"/>
<path fill="#4D4D4D" d="M226.556,1.119c0-0.618,0.502-1.119,1.12-1.119c0.617,0,1.119,0.501,1.119,1.119s-0.502,1.119-1.119,1.119
	C227.058,2.238,226.556,1.737,226.556,1.119"/>
<path fill="#4D4D4D" d="M232.461,1.119c0-0.618,0.502-1.119,1.12-1.119c0.617,0,1.119,0.501,1.119,1.119s-0.502,1.119-1.119,1.119
	C232.963,2.238,232.461,1.737,232.461,1.119"/>
<path fill="#4D4D4D" d="M238.367,1.119c0-0.618,0.502-1.119,1.12-1.119c0.617,0,1.119,0.501,1.119,1.119s-0.502,1.119-1.119,1.119
	C238.869,2.238,238.367,1.737,238.367,1.119"/>
<path fill="#4D4D4D" d="M244.272,1.119c0-0.618,0.502-1.119,1.12-1.119c0.617,0,1.119,0.501,1.119,1.119s-0.502,1.119-1.119,1.119
	C244.774,2.238,244.272,1.737,244.272,1.119"/>
<path fill="#4D4D4D" d="M250.178,1.119c0-0.618,0.502-1.119,1.12-1.119c0.616,0,1.118,0.501,1.118,1.119s-0.502,1.119-1.118,1.119
	C250.68,2.238,250.178,1.737,250.178,1.119"/>
<path fill="#4D4D4D" d="M256.083,1.119c0-0.618,0.502-1.119,1.119-1.119c0.617,0,1.119,0.501,1.119,1.119s-0.502,1.119-1.119,1.119
	C256.585,2.238,256.083,1.737,256.083,1.119"/>
<path fill="#4D4D4D" d="M131.103,1.119c0-0.618,0.502-1.119,1.12-1.119c0.617,0,1.119,0.501,1.119,1.119s-0.502,1.119-1.119,1.119
	C131.605,2.238,131.103,1.737,131.103,1.119"/>
<path fill="#4D4D4D" d="M262.067,1.119c0-0.618,0.502-1.119,1.12-1.119c0.617,0,1.119,0.501,1.119,1.119s-0.502,1.119-1.119,1.119
	C262.569,2.238,262.067,1.737,262.067,1.119"/>
<path fill="#4D4D4D" d="M274.175,1.119c0-0.618,0.502-1.119,1.119-1.119c0.617,0,1.119,0.501,1.119,1.119s-0.502,1.119-1.119,1.119
	C274.677,2.238,274.175,1.737,274.175,1.119"/>
<path fill="#4D4D4D" d="M280.614,1.119c0-0.618,0.502-1.119,1.119-1.119c0.618,0,1.12,0.501,1.12,1.119s-0.502,1.119-1.12,1.119
	C281.116,2.238,280.614,1.737,280.614,1.119"/>
<path fill="#4D4D4D" d="M286.52,1.119c0-0.618,0.502-1.119,1.12-1.119c0.617,0,1.119,0.501,1.119,1.119s-0.502,1.119-1.119,1.119
	C287.021,2.238,286.52,1.737,286.52,1.119"/>
<path fill="#4D4D4D" d="M292.425,1.119c0-0.618,0.502-1.119,1.12-1.119c0.617,0,1.119,0.501,1.119,1.119s-0.502,1.119-1.119,1.119
	C292.927,2.238,292.425,1.737,292.425,1.119"/>
<path fill="#4D4D4D" d="M298.331,1.119c0-0.618,0.502-1.119,1.12-1.119c0.617,0,1.119,0.501,1.119,1.119s-0.502,1.119-1.119,1.119
	C298.833,2.238,298.331,1.737,298.331,1.119"/>
<path fill="#4D4D4D" d="M304.236,1.119c0-0.618,0.502-1.119,1.12-1.119c0.617,0,1.119,0.501,1.119,1.119s-0.502,1.119-1.119,1.119
	C304.738,2.238,304.236,1.737,304.236,1.119"/>
<path fill="#4D4D4D" d="M310.142,1.119c0-0.618,0.502-1.119,1.12-1.119c0.617,0,1.119,0.501,1.119,1.119s-0.502,1.119-1.119,1.119
	C310.644,2.238,310.142,1.737,310.142,1.119"/>
<path fill="#4D4D4D" d="M316.047,1.119c0-0.618,0.502-1.119,1.12-1.119c0.616,0,1.119,0.501,1.119,1.119s-0.503,1.119-1.119,1.119
	C316.549,2.238,316.047,1.737,316.047,1.119"/>
<path fill="#4D4D4D" d="M322.069,1.119c0-0.618,0.502-1.119,1.119-1.119c0.617,0,1.119,0.501,1.119,1.119s-0.502,1.119-1.119,1.119
	C322.571,2.238,322.069,1.737,322.069,1.119"/>
<path fill="#4D4D4D" d="M327.974,1.119c0-0.618,0.502-1.119,1.12-1.119c0.617,0,1.119,0.501,1.119,1.119s-0.502,1.119-1.119,1.119
	C328.476,2.238,327.974,1.737,327.974,1.119"/>
<path fill="#4D4D4D" d="M333.879,1.119C333.879,0.501,334.381,0,335,0c0.617,0,1.119,0.501,1.119,1.119S335.616,2.238,335,2.238
	C334.381,2.238,333.879,1.737,333.879,1.119"/>
<path fill="#4D4D4D" d="M339.785,1.119c0-0.618,0.502-1.119,1.12-1.119c0.617,0,1.119,0.501,1.119,1.119s-0.502,1.119-1.119,1.119
	C340.287,2.238,339.785,1.737,339.785,1.119"/>
<path fill="#4D4D4D" d="M345.69,1.119c0-0.618,0.502-1.119,1.12-1.119c0.617,0,1.119,0.501,1.119,1.119s-0.502,1.119-1.119,1.119
	C346.192,2.238,345.69,1.737,345.69,1.119"/>
<path fill="#4D4D4D" d="M351.596,1.119c0-0.618,0.502-1.119,1.119-1.119c0.618,0,1.12,0.501,1.12,1.119s-0.502,1.119-1.12,1.119
	C352.098,2.238,351.596,1.737,351.596,1.119"/>
<path fill="#4D4D4D" d="M357.501,1.119c0-0.618,0.502-1.119,1.12-1.119c0.617,0,1.119,0.501,1.119,1.119s-0.502,1.119-1.119,1.119
	C358.003,2.238,357.501,1.737,357.501,1.119"/>
<path fill="#4D4D4D" d="M363.643,1.119c0-0.618,0.502-1.119,1.12-1.119c0.617,0,1.119,0.501,1.119,1.119s-0.502,1.119-1.119,1.119
	C364.145,2.238,363.643,1.737,363.643,1.119"/>
<path fill="#4D4D4D" d="M369.549,1.119c0-0.618,0.502-1.119,1.12-1.119c0.617,0,1.119,0.501,1.119,1.119s-0.502,1.119-1.119,1.119
	C370.051,2.238,369.549,1.737,369.549,1.119"/>
<path fill="#4D4D4D" d="M375.454,1.119c0-0.618,0.502-1.119,1.12-1.119c0.617,0,1.119,0.501,1.119,1.119s-0.502,1.119-1.119,1.119
	C375.956,2.238,375.454,1.737,375.454,1.119"/>
<path fill="#4D4D4D" d="M381.36,1.119c0-0.618,0.502-1.119,1.12-1.119c0.617,0,1.119,0.501,1.119,1.119s-0.502,1.119-1.119,1.119
	C381.862,2.238,381.36,1.737,381.36,1.119"/>
<path fill="#4D4D4D" d="M387.265,1.119c0-0.618,0.502-1.119,1.12-1.119c0.616,0,1.118,0.501,1.118,1.119s-0.502,1.119-1.118,1.119
	C387.767,2.238,387.265,1.737,387.265,1.119"/>
<path fill="#4D4D4D" d="M393.171,1.119c0-0.618,0.502-1.119,1.119-1.119c0.617,0,1.119,0.501,1.119,1.119s-0.502,1.119-1.119,1.119
	C393.673,2.238,393.171,1.737,393.171,1.119"/>
<path fill="#4D4D4D" d="M268.19,1.119c0-0.618,0.502-1.119,1.12-1.119c0.617,0,1.119,0.501,1.119,1.119s-0.502,1.119-1.119,1.119
	C268.692,2.238,268.19,1.737,268.19,1.119"/>
<path fill="#4D4D4D" d="M399.154,1.119c0-0.618,0.502-1.119,1.12-1.119c0.617,0,1.119,0.501,1.119,1.119s-0.502,1.119-1.119,1.119
	C399.656,2.238,399.154,1.737,399.154,1.119"/>
<path fill="#4D4D4D" d="M411.262,1.119c0-0.618,0.502-1.119,1.119-1.119c0.617,0,1.119,0.501,1.119,1.119s-0.502,1.119-1.119,1.119
	C411.764,2.238,411.262,1.737,411.262,1.119"/>
<path fill="#4D4D4D" d="M417.702,1.119c0-0.618,0.502-1.119,1.119-1.119c0.618,0,1.12,0.501,1.12,1.119s-0.502,1.119-1.12,1.119
	C418.204,2.238,417.702,1.737,417.702,1.119"/>
<path fill="#4D4D4D" d="M423.607,1.119c0-0.618,0.502-1.119,1.12-1.119c0.617,0,1.119,0.501,1.119,1.119s-0.502,1.119-1.119,1.119
	C424.109,2.238,423.607,1.737,423.607,1.119"/>
<path fill="#4D4D4D" d="M429.512,1.119c0-0.618,0.502-1.119,1.12-1.119c0.617,0,1.119,0.501,1.119,1.119s-0.502,1.119-1.119,1.119
	C430.014,2.238,429.512,1.737,429.512,1.119"/>
<path fill="#4D4D4D" d="M435.418,1.119c0-0.618,0.502-1.119,1.12-1.119c0.617,0,1.119,0.501,1.119,1.119s-0.501,1.119-1.119,1.119
	C435.92,2.238,435.418,1.737,435.418,1.119"/>
<path fill="#4D4D4D" d="M441.32,1.119c0-0.618,0.502-1.119,1.121-1.119c0.615,0,1.117,0.501,1.117,1.119s-0.502,1.119-1.117,1.119
	C441.822,2.238,441.32,1.737,441.32,1.119"/>
<path fill="#4D4D4D" d="M447.227,1.119c0-0.618,0.5-1.119,1.119-1.119c0.617,0,1.119,0.501,1.119,1.119s-0.502,1.119-1.119,1.119
	C447.727,2.238,447.227,1.737,447.227,1.119"/>
<path fill="#4D4D4D" d="M453.131,1.119c0-0.618,0.502-1.119,1.119-1.119s1.119,0.501,1.119,1.119s-0.502,1.119-1.119,1.119
	S453.131,1.737,453.131,1.119"/>
<path fill="#4D4D4D" d="M459.152,1.119c0-0.618,0.502-1.119,1.119-1.119s1.119,0.501,1.119,1.119s-0.502,1.119-1.119,1.119
	S459.152,1.737,459.152,1.119"/>
<path fill="#4D4D4D" d="M465.057,1.119c0-0.618,0.502-1.119,1.121-1.119c0.617,0,1.119,0.501,1.119,1.119s-0.502,1.119-1.119,1.119
	C465.559,2.238,465.057,1.737,465.057,1.119"/>
<path fill="#4D4D4D" d="M470.963,1.119c0-0.618,0.502-1.119,1.119-1.119s1.119,0.501,1.119,1.119s-0.502,1.119-1.119,1.119
	S470.963,1.737,470.963,1.119"/>
<path fill="#4D4D4D" d="M476.867,1.119c0-0.618,0.502-1.119,1.119-1.119s1.119,0.501,1.119,1.119s-0.502,1.119-1.119,1.119
	S476.867,1.737,476.867,1.119"/>
<path fill="#4D4D4D" d="M482.773,1.119c0-0.618,0.502-1.119,1.119-1.119s1.119,0.501,1.119,1.119s-0.502,1.119-1.119,1.119
	S482.773,1.737,482.773,1.119"/>
<path fill="#4D4D4D" d="M488.678,1.119c0-0.618,0.502-1.119,1.119-1.119s1.119,0.501,1.119,1.119s-0.502,1.119-1.119,1.119
	S488.678,1.737,488.678,1.119"/>
<path fill="#4D4D4D" d="M494.584,1.119c0-0.618,0.502-1.119,1.119-1.119s1.119,0.501,1.119,1.119s-0.502,1.119-1.119,1.119
	S494.584,1.737,494.584,1.119"/>
<path fill="#4D4D4D" d="M500.725,1.119c0-0.618,0.502-1.119,1.119-1.119s1.119,0.501,1.119,1.119s-0.502,1.119-1.119,1.119
	S500.725,1.737,500.725,1.119"/>
<path fill="#4D4D4D" d="M506.631,1.119c0-0.618,0.502-1.119,1.119-1.119s1.119,0.501,1.119,1.119s-0.502,1.119-1.119,1.119
	S506.631,1.737,506.631,1.119"/>
<path fill="#4D4D4D" d="M512.535,1.119c0-0.618,0.502-1.119,1.119-1.119s1.119,0.501,1.119,1.119s-0.502,1.119-1.119,1.119
	S512.535,1.737,512.535,1.119"/>
<path fill="#4D4D4D" d="M518.439,1.119c0-0.618,0.502-1.119,1.121-1.119c0.617,0,1.119,0.501,1.119,1.119s-0.502,1.119-1.119,1.119
	C518.941,2.238,518.439,1.737,518.439,1.119"/>
<path fill="#4D4D4D" d="M524.346,1.119c0-0.618,0.502-1.119,1.119-1.119s1.119,0.501,1.119,1.119s-0.502,1.119-1.119,1.119
	S524.346,1.737,524.346,1.119"/>
<path fill="#4D4D4D" d="M530.25,1.119c0-0.618,0.502-1.119,1.119-1.119s1.119,0.501,1.119,1.119s-0.502,1.119-1.119,1.119
	S530.25,1.737,530.25,1.119"/>
<path fill="#4D4D4D" d="M405.278,1.119c0-0.618,0.502-1.119,1.12-1.119c0.617,0,1.119,0.501,1.119,1.119s-0.502,1.119-1.119,1.119
	C405.78,2.238,405.278,1.737,405.278,1.119"/>
<path fill="#4D4D4D" d="M536.234,1.119c0-0.618,0.502-1.119,1.119-1.119s1.119,0.501,1.119,1.119s-0.502,1.119-1.119,1.119
	S536.234,1.737,536.234,1.119"/>
<path fill="#4D4D4D" d="M548.109,1.119c0-0.618,0.502-1.119,1.119-1.119s1.119,0.501,1.119,1.119s-0.502,1.119-1.119,1.119
	S548.109,1.737,548.109,1.119"/>
<path fill="#4D4D4D" d="M554.549,1.119c0-0.618,0.502-1.119,1.119-1.119s1.119,0.501,1.119,1.119s-0.502,1.119-1.119,1.119
	S554.549,1.737,554.549,1.119"/>
<path fill="#4D4D4D" d="M560.455,1.119c0-0.618,0.502-1.119,1.119-1.119s1.119,0.501,1.119,1.119s-0.502,1.119-1.119,1.119
	S560.455,1.737,560.455,1.119"/>
<path fill="#4D4D4D" d="M566.359,1.119c0-0.618,0.502-1.119,1.119-1.119c0.619,0,1.121,0.501,1.121,1.119s-0.502,1.119-1.121,1.119
	C566.861,2.238,566.359,1.737,566.359,1.119"/>
<path fill="#4D4D4D" d="M572.266,1.119c0-0.618,0.502-1.119,1.119-1.119s1.119,0.501,1.119,1.119s-0.502,1.119-1.119,1.119
	S572.266,1.737,572.266,1.119"/>
<path fill="#4D4D4D" d="M578.17,1.119c0-0.618,0.504-1.119,1.121-1.119s1.119,0.501,1.119,1.119s-0.502,1.119-1.119,1.119
	S578.17,1.737,578.17,1.119"/>
<path fill="#4D4D4D" d="M584.076,1.119c0-0.618,0.502-1.119,1.119-1.119s1.121,0.501,1.121,1.119s-0.504,1.119-1.121,1.119
	S584.076,1.737,584.076,1.119"/>
<path fill="#4D4D4D" d="M589.982,1.119c0-0.618,0.502-1.119,1.119-1.119s1.119,0.501,1.119,1.119s-0.502,1.119-1.119,1.119
	S589.982,1.737,589.982,1.119"/>
<path fill="#4D4D4D" d="M596.004,1.119c0-0.618,0.502-1.119,1.119-1.119s1.119,0.501,1.119,1.119s-0.502,1.119-1.119,1.119
	S596.004,1.737,596.004,1.119"/>
<path fill="#4D4D4D" d="M601.908,1.119c0-0.618,0.502-1.119,1.121-1.119c0.617,0,1.119,0.501,1.119,1.119s-0.502,1.119-1.119,1.119
	C602.41,2.238,601.908,1.737,601.908,1.119"/>
<path fill="#4D4D4D" d="M607.814,1.119c0-0.618,0.502-1.119,1.119-1.119s1.119,0.501,1.119,1.119s-0.502,1.119-1.119,1.119
	S607.814,1.737,607.814,1.119"/>
<path fill="#4D4D4D" d="M613.721,1.119c0-0.618,0.502-1.119,1.119-1.119s1.119,0.501,1.119,1.119s-0.502,1.119-1.119,1.119
	S613.721,1.737,613.721,1.119"/>
<path fill="#4D4D4D" d="M619.625,1.119c0-0.618,0.502-1.119,1.119-1.119c0.619,0,1.121,0.501,1.121,1.119s-0.502,1.119-1.121,1.119
	C620.127,2.238,619.625,1.737,619.625,1.119"/>
<path fill="#4D4D4D" d="M625.531,1.119c0-0.618,0.502-1.119,1.119-1.119s1.119,0.501,1.119,1.119s-0.502,1.119-1.119,1.119
	S625.531,1.737,625.531,1.119"/>
<path fill="#4D4D4D" d="M631.436,1.119c0-0.618,0.502-1.119,1.121-1.119c0.617,0,1.119,0.501,1.119,1.119s-0.502,1.119-1.119,1.119
	C631.938,2.238,631.436,1.737,631.436,1.119"/>
<path fill="#4D4D4D" d="M637.578,1.119c0-0.618,0.502-1.119,1.119-1.119s1.119,0.501,1.119,1.119s-0.502,1.119-1.119,1.119
	S637.578,1.737,637.578,1.119"/>
<path fill="#4D4D4D" d="M643.484,1.119c0-0.618,0.502-1.119,1.119-1.119s1.119,0.501,1.119,1.119s-0.502,1.119-1.119,1.119
	S643.484,1.737,643.484,1.119"/>
<path fill="#4D4D4D" d="M649.389,1.119c0-0.618,0.502-1.119,1.119-1.119c0.619,0,1.121,0.501,1.121,1.119s-0.502,1.119-1.121,1.119
	C649.891,2.238,649.389,1.737,649.389,1.119"/>
<path fill="#4D4D4D" d="M655.295,1.119c0-0.618,0.502-1.119,1.119-1.119s1.119,0.501,1.119,1.119s-0.502,1.119-1.119,1.119
	S655.295,1.737,655.295,1.119"/>
<path fill="#4D4D4D" d="M661.199,1.119c0-0.618,0.502-1.119,1.121-1.119c0.615,0,1.117,0.501,1.117,1.119s-0.502,1.119-1.117,1.119
	C661.701,2.238,661.199,1.737,661.199,1.119"/>
<path fill="#4D4D4D" d="M667.105,1.119c0-0.618,0.502-1.119,1.119-1.119s1.119,0.501,1.119,1.119s-0.502,1.119-1.119,1.119
	S667.105,1.737,667.105,1.119"/>
<path fill="#4D4D4D" d="M542.125,1.119c0-0.618,0.502-1.119,1.119-1.119s1.121,0.501,1.121,1.119s-0.504,1.119-1.121,1.119
	S542.125,1.737,542.125,1.119"/>
<path fill="#4D4D4D" d="M673.09,1.119c0-0.618,0.502-1.119,1.119-1.119s1.119,0.501,1.119,1.119s-0.502,1.119-1.119,1.119
	S673.09,1.737,673.09,1.119"/>
<path fill="#4D4D4D" d="M685.197,1.119c0-0.618,0.502-1.119,1.119-1.119s1.119,0.501,1.119,1.119s-0.502,1.119-1.119,1.119
	S685.197,1.737,685.197,1.119"/>
<path fill="#4D4D4D" d="M691.637,1.119c0-0.618,0.502-1.119,1.119-1.119s1.119,0.501,1.119,1.119s-0.502,1.119-1.119,1.119
	S691.637,1.737,691.637,1.119"/>
<path fill="#4D4D4D" d="M697.541,1.119c0-0.618,0.502-1.119,1.121-1.119c0.617,0,1.119,0.501,1.119,1.119s-0.502,1.119-1.119,1.119
	C698.043,2.238,697.541,1.737,697.541,1.119"/>
<path fill="#4D4D4D" d="M703.447,1.119c0-0.618,0.502-1.119,1.119-1.119s1.119,0.501,1.119,1.119s-0.502,1.119-1.119,1.119
	S703.447,1.737,703.447,1.119"/>
<path fill="#4D4D4D" d="M709.354,1.119c0-0.618,0.502-1.119,1.119-1.119s1.119,0.501,1.119,1.119s-0.502,1.119-1.119,1.119
	S709.354,1.737,709.354,1.119"/>
<path fill="#4D4D4D" d="M715.258,1.119c0-0.618,0.502-1.119,1.119-1.119c0.619,0,1.121,0.501,1.121,1.119s-0.502,1.119-1.121,1.119
	C715.76,2.238,715.258,1.737,715.258,1.119"/>
<path fill="#4D4D4D" d="M721.164,1.119c0-0.618,0.502-1.119,1.119-1.119s1.119,0.501,1.119,1.119s-0.502,1.119-1.119,1.119
	S721.164,1.737,721.164,1.119"/>
<path fill="#4D4D4D" d="M727.068,1.119c0-0.618,0.502-1.119,1.121-1.119c0.615,0,1.119,0.501,1.119,1.119s-0.504,1.119-1.119,1.119
	C727.57,2.238,727.068,1.737,727.068,1.119"/>
<path fill="#4D4D4D" d="M733.092,1.119c0-0.618,0.502-1.119,1.119-1.119s1.119,0.501,1.119,1.119s-0.502,1.119-1.119,1.119
	S733.092,1.737,733.092,1.119"/>
<path fill="#4D4D4D" d="M738.996,1.119c0-0.618,0.502-1.119,1.119-1.119s1.121,0.501,1.121,1.119s-0.504,1.119-1.121,1.119
	S738.996,1.737,738.996,1.119"/>
<path fill="#4D4D4D" d="M744.902,1.119c0-0.618,0.502-1.119,1.119-1.119s1.119,0.501,1.119,1.119s-0.502,1.119-1.119,1.119
	S744.902,1.737,744.902,1.119"/>
<path fill="#4D4D4D" d="M750.807,1.119c0-0.618,0.502-1.119,1.121-1.119c0.617,0,1.119,0.501,1.119,1.119s-0.502,1.119-1.119,1.119
	C751.309,2.238,750.807,1.737,750.807,1.119"/>
<path fill="#4D4D4D" d="M756.713,1.119c0-0.618,0.502-1.119,1.119-1.119s1.119,0.501,1.119,1.119s-0.502,1.119-1.119,1.119
	S756.713,1.737,756.713,1.119"/>
<path fill="#4D4D4D" d="M762.619,1.119c0-0.618,0.502-1.119,1.119-1.119s1.119,0.501,1.119,1.119s-0.502,1.119-1.119,1.119
	S762.619,1.737,762.619,1.119"/>
<path fill="#4D4D4D" d="M768.523,1.119c0-0.618,0.502-1.119,1.119-1.119s1.121,0.501,1.121,1.119s-0.504,1.119-1.121,1.119
	S768.523,1.737,768.523,1.119"/>
<path fill="#4D4D4D" d="M774.666,1.119c0-0.618,0.502-1.119,1.119-1.119s1.119,0.501,1.119,1.119s-0.502,1.119-1.119,1.119
	S774.666,1.737,774.666,1.119"/>
<path fill="#4D4D4D" d="M780.57,1.119c0-0.618,0.502-1.119,1.121-1.119c0.617,0,1.119,0.501,1.119,1.119s-0.502,1.119-1.119,1.119
	C781.072,2.238,780.57,1.737,780.57,1.119"/>
<path fill="#4D4D4D" d="M786.477,1.119c0-0.618,0.502-1.119,1.119-1.119s1.119,0.501,1.119,1.119s-0.502,1.119-1.119,1.119
	S786.477,1.737,786.477,1.119"/>
<path fill="#4D4D4D" d="M792.383,1.119c0-0.618,0.502-1.119,1.119-1.119s1.119,0.501,1.119,1.119s-0.502,1.119-1.119,1.119
	S792.383,1.737,792.383,1.119"/>
<path fill="#4D4D4D" d="M798.287,1.119c0-0.618,0.502-1.119,1.119-1.119s1.119,0.501,1.119,1.119s-0.502,1.119-1.119,1.119
	S798.287,1.737,798.287,1.119"/>
<path fill="#4D4D4D" d="M804.193,1.119c0-0.618,0.502-1.119,1.119-1.119s1.119,0.501,1.119,1.119s-0.502,1.119-1.119,1.119
	S804.193,1.737,804.193,1.119"/>
<path fill="#4D4D4D" d="M679.213,1.119c0-0.618,0.502-1.119,1.119-1.119s1.119,0.501,1.119,1.119s-0.502,1.119-1.119,1.119
	S679.213,1.737,679.213,1.119"/>
<path fill="#4D4D4D" d="M810.176,1.119c0-0.618,0.504-1.119,1.121-1.119s1.119,0.501,1.119,1.119s-0.502,1.119-1.119,1.119
	S810.176,1.737,810.176,1.119"/>
<path fill="#4D4D4D" d="M822.285,1.119c0-0.618,0.502-1.119,1.119-1.119s1.119,0.501,1.119,1.119s-0.502,1.119-1.119,1.119
	S822.285,1.737,822.285,1.119"/>
<path fill="#4D4D4D" d="M828.725,1.119c0-0.618,0.502-1.119,1.119-1.119s1.119,0.501,1.119,1.119s-0.502,1.119-1.119,1.119
	S828.725,1.737,828.725,1.119"/>
<path fill="#4D4D4D" d="M834.629,1.119c0-0.618,0.502-1.119,1.119-1.119s1.121,0.501,1.121,1.119s-0.504,1.119-1.121,1.119
	S834.629,1.737,834.629,1.119"/>
<path fill="#4D4D4D" d="M840.535,1.119c0-0.618,0.502-1.119,1.119-1.119s1.119,0.501,1.119,1.119s-0.502,1.119-1.119,1.119
	S840.535,1.737,840.535,1.119"/>
<path fill="#4D4D4D" d="M846.439,1.119c0-0.618,0.502-1.119,1.121-1.119c0.617,0,1.119,0.501,1.119,1.119s-0.502,1.119-1.119,1.119
	C846.941,2.238,846.439,1.737,846.439,1.119"/>
<path fill="#4D4D4D" d="M852.344,1.119c0-0.618,0.502-1.119,1.119-1.119s1.119,0.501,1.119,1.119s-0.502,1.119-1.119,1.119
	S852.344,1.737,852.344,1.119"/>
<path fill="#4D4D4D" d="M858.248,1.119c0-0.618,0.502-1.119,1.119-1.119s1.119,0.501,1.119,1.119s-0.502,1.119-1.119,1.119
	S858.248,1.737,858.248,1.119"/>
<path fill="#4D4D4D" d="M864.152,1.119c0-0.618,0.502-1.119,1.121-1.119c0.615,0,1.119,0.501,1.119,1.119s-0.504,1.119-1.119,1.119
	C864.654,2.238,864.152,1.737,864.152,1.119"/>
<path fill="#4D4D4D" d="M870.174,1.119c0-0.618,0.502-1.119,1.121-1.119c0.615,0,1.119,0.501,1.119,1.119s-0.504,1.119-1.119,1.119
	C870.676,2.238,870.174,1.737,870.174,1.119"/>
<path fill="#4D4D4D" d="M876.195,1.119c0-0.618,0.502-1.119,1.121-1.119c0.615,0,1.119,0.501,1.119,1.119s-0.504,1.119-1.119,1.119
	C876.697,2.238,876.195,1.737,876.195,1.119"/>
<path fill="#4D4D4D" d="M882.099,1.119c0-0.618,0.502-1.119,1.119-1.119s1.119,0.501,1.119,1.119s-0.502,1.119-1.119,1.119
	S882.099,1.737,882.099,1.119"/>
<path fill="#4D4D4D" d="M888.003,1.119c0-0.618,0.502-1.119,1.119-1.119s1.119,0.501,1.119,1.119s-0.502,1.119-1.119,1.119
	S888.003,1.737,888.003,1.119"/>
<path fill="#4D4D4D" d="M893.907,1.119c0-0.618,0.502-1.119,1.121-1.119c0.615,0,1.119,0.501,1.119,1.119s-0.504,1.119-1.119,1.119
	C894.409,2.238,893.907,1.737,893.907,1.119"/>
<path fill="#4D4D4D" d="M899.929,1.119c0-0.618,0.502-1.119,1.121-1.119c0.615,0,1.119,0.501,1.119,1.119s-0.504,1.119-1.119,1.119
	C900.431,2.238,899.929,1.737,899.929,1.119"/>
<path fill="#4D4D4D" d="M905.95,1.119c0-0.618,0.502-1.119,1.121-1.119c0.615,0,1.119,0.501,1.119,1.119s-0.504,1.119-1.119,1.119
	C906.452,2.238,905.95,1.737,905.95,1.119"/>
<path fill="#4D4D4D" d="M911.854,1.119c0-0.618,0.502-1.119,1.121-1.119c0.615,0,1.119,0.501,1.119,1.119s-0.504,1.119-1.119,1.119
	C912.355,2.238,911.854,1.737,911.854,1.119"/>
<path fill="#4D4D4D" d="M917.875,1.119c0-0.618,0.502-1.119,1.121-1.119c0.615,0,1.119,0.501,1.119,1.119s-0.504,1.119-1.119,1.119
	C918.377,2.238,917.875,1.737,917.875,1.119"/>
<path fill="#4D4D4D" d="M923.896,1.119c0-0.618,0.502-1.119,1.121-1.119c0.615,0,1.119,0.501,1.119,1.119s-0.504,1.119-1.119,1.119
	C924.398,2.238,923.896,1.737,923.896,1.119"/>
<path fill="#4D4D4D" d="M816.301,1.119c0-0.618,0.502-1.119,1.119-1.119s1.119,0.501,1.119,1.119s-0.502,1.119-1.119,1.119
	S816.301,1.737,816.301,1.119"/>
</svg>
