<?xml version="1.0" encoding="utf-8"?>
<!-- Generator: Adobe Illustrator 16.0.0, SVG Export Plug-In . SVG Version: 6.00 Build 0)  -->
<!DOCTYPE svg PUBLIC "-//W3C//DTD SVG 1.1//EN" "http://www.w3.org/Graphics/SVG/1.1/DTD/svg11.dtd">
<svg version="1.1" id="Layer_1" xmlns="http://www.w3.org/2000/svg" xmlns:xlink="http://www.w3.org/1999/xlink" x="0px" y="0px"
	 width="131.568px" height="81.568px" viewBox="39.84 43.774 131.568 81.568"
	 style="enable-background:new 39.84 43.774 131.568 81.568;" xml:space="preserve">
<style type="text/css">
<![CDATA[
	.st0{fill:#8DC63F;}
	.st1{fill:#FFFFFF;}
]]>
</style>
<g>
	<polygon class="st1" points="42.075,55.827 43.146,55.827 43.146,61.689 48.402,61.689 48.402,62.619 42.075,62.619 	"/>
	<path class="st1" d="M54.589,55.829h-1.41l-3.71,6.79h1.319l0.791-1.63h4.64l0.79,1.63h1.49L54.589,55.829z M52.038,60.069
		l1.83-3.43l1.84,3.43H52.038z"/>
	<polygon class="st1" points="114.909,55.827 115.979,55.827 115.979,61.689 121.236,61.689 121.236,62.619 114.909,62.619 	"/>
	<path class="st1" d="M127.423,55.829h-1.41l-3.71,6.79h1.319l0.791-1.63h4.64l0.79,1.63h1.49L127.423,55.829z M124.872,60.069
		l1.83-3.43l1.84,3.43H124.872z"/>
	<path class="st1" d="M156.187,55.829h-1.41l-3.71,6.79h1.319l0.791-1.63h4.64l0.79,1.63h1.49L156.187,55.829z M153.636,60.069
		l1.83-3.43l1.84,3.43H153.636z"/>
	<path class="st1" d="M66.378,57.644h1.047c0,0,0-0.699,0-1.086s-0.581-0.731-1.047-0.731s-4.462,0-5.044,0
		s-0.815,0.465-0.815,0.909s0,1.646,0,2.112s0.582,0.699,1.087,0.699s4.889,0,4.889,0v2.134h-5.198v-1.203l-1.049,0.388
		c0,0,0,0.737,0,1.164s0.35,0.591,0.815,0.591s4.694,0,5.509,0c0.815,0,1.01-0.436,1.01-1.173s0-1.242,0-1.94
		s-0.428-0.97-1.164-0.97c-0.737,0-4.928,0-4.928,0v-1.862h4.85L66.378,57.644z"/>
	<path class="st1" d="M167.946,57.644h1.047c0,0,0-0.699,0-1.086s-0.581-0.731-1.047-0.731s-4.462,0-5.044,0
		s-0.815,0.465-0.815,0.909s0,1.646,0,2.112s0.582,0.699,1.087,0.699s4.889,0,4.889,0v2.134h-5.198v-1.203l-1.049,0.388
		c0,0,0,0.737,0,1.164s0.35,0.591,0.815,0.591s4.694,0,5.509,0c0.815,0,1.01-0.436,1.01-1.173s0-1.242,0-1.94
		s-0.428-0.97-1.164-0.97c-0.737,0-4.928,0-4.928,0v-1.862h4.85L167.946,57.644z"/>
	<polygon class="st1" points="47.933,82.626 47.933,75.709 48.808,75.709 54.599,81.126 54.599,75.709 55.599,75.709 55.599,82.626 
		54.724,82.626 48.933,77.251 48.933,82.626 	"/>
	<polygon class="st1" points="142.849,82.626 142.849,75.709 143.724,75.709 149.515,81.126 149.515,75.709 150.515,75.709 
		150.515,82.626 149.64,82.626 143.849,77.251 143.849,82.626 	"/>
	<polygon class="st1" points="133.266,62.619 133.266,55.703 134.141,55.703 139.933,61.119 139.933,55.703 140.933,55.703 
		140.933,62.619 140.058,62.619 134.266,57.245 134.266,62.619 	"/>
	<path class="st1" d="M66.019,75.706h-5.77c-0.641,0-1.19,0.21-1.19,0.96c0,0,0,4.5,0,5.13c0,0.62,0.16,0.83,0.96,0.83h6
		c0.41,0,0.87-0.21,0.87-1.09v-4.87C66.889,75.996,66.929,75.706,66.019,75.706z M65.849,81.706h-5.6v-4.96h5.6V81.706z"/>
	<path class="st1" d="M116.852,75.706h-5.771c-0.64,0-1.189,0.21-1.189,0.96c0,0,0,4.5,0,5.13c0,0.62,0.16,0.83,0.96,0.83h6
		c0.41,0,0.87-0.21,0.87-1.09v-4.87C117.722,75.996,117.762,75.706,116.852,75.706z M116.682,81.706h-5.601v-4.96h5.601V81.706z"/>
	<path class="st1" d="M105.767,79.935v1.771h-4.775v-4.96h4.775v1.48l1.04-0.286v-1.274c0-0.67,0.04-0.96-0.87-0.96h-4.945
		c-0.64,0-1.189,0.21-1.189,0.96c0,0,0,4.5,0,5.13c0,0.62,0.16,0.83,0.96,0.83h5.175c0.41,0,0.87-0.21,0.87-1.09v-1.315
		L105.767,79.935z"/>
	<path class="st1" d="M111.079,55.729c-0.681,0-6.08,0-6.08,0v6.89h1.069v-2.74c0,0,4.53,0,4.95,0s0.89-0.18,0.89-0.71v-2.49
		C111.908,56.269,111.769,55.729,111.079,55.729z M110.879,58.659c0,0.24-0.12,0.41-0.42,0.41c-0.301,0-4.391,0-4.391,0v-2.51
		c0,0,3.8,0,4.19,0c0.39,0,0.62,0.21,0.62,0.42V58.659z"/>
	<polygon class="st1" points="150.455,55.719 150.455,56.719 147.075,56.719 147.075,62.619 146.075,62.619 146.075,56.719 
		142.955,56.719 142.955,55.719 	"/>
	<polygon class="st1" points="121.309,82.627 121.309,75.694 122.28,75.694 125.603,80.02 128.651,75.694 129.861,75.694 
		129.861,82.627 128.651,82.627 128.651,77.581 125.585,81.667 122.349,77.514 122.349,82.627 	"/>
	<polygon class="st1" points="152.662,104.147 152.662,100.655 153.151,100.655 154.825,102.833 156.361,100.655 156.971,100.655 
		156.971,104.147 156.361,104.147 156.361,101.604 154.816,103.663 153.187,101.571 153.187,104.147 	"/>
	<polygon class="st1" points="134.479,76.753 134.479,78.539 138.039,78.539 138.039,79.558 134.479,79.558 134.479,81.596 
		140.139,81.596 140.139,82.625 133.198,82.625 133.198,75.694 140.139,75.694 140.139,76.753 	"/>
	<polygon class="st1" points="138.091,100.43 138.091,93.514 138.966,93.514 144.757,98.93 144.757,93.514 145.757,93.514 
		145.757,100.43 144.882,100.43 139.091,95.055 139.091,100.43 	"/>
	<polygon class="st1" points="129.721,94.557 129.721,96.342 133.281,96.342 133.281,97.362 129.721,97.362 129.721,99.401 
		135.381,99.401 135.381,100.43 128.44,100.43 128.44,93.499 135.381,93.499 135.381,94.557 	"/>
	<polygon class="st1" points="110.304,94.557 110.304,96.342 113.864,96.342 113.864,97.362 110.304,97.362 110.304,99.401 
		115.964,99.401 115.964,100.43 109.023,100.43 109.023,93.499 115.964,93.499 115.964,94.557 	"/>
	<path class="st1" d="M155.629,81.714c0,0.05,0,0.09-0.011,0.14c0,0-0.01,0.02-0.02,0.06c-0.02,0.101-0.06,0.2-0.12,0.29
		c-0.21,0.46-0.58,1.24-0.91,1.571h-0.689c0,0,0.55-0.601,0.779-1.201c-0.439-0.04-0.779-0.41-0.779-0.859
		c0-0.48,0.39-0.88,0.88-0.88C155.238,80.834,155.629,81.233,155.629,81.714z"/>
	<path class="st1" d="M105.818,96.024v-1.449c0-0.59-0.17-1.051-0.83-1.051c-0.659,0-6.28,0-6.28,0v6.881c0,0,5.271,0,5.871,0
		c0.609,0,1.239-0.6,1.239-1v-1.471c0-0.949-1.05-1.16-1.05-1.16C105.148,96.774,105.818,96.415,105.818,96.024z M99.788,94.374
		c0,0,4.011,0,4.391,0c0.37,0,0.42,0.182,0.42,0.4v1.25c0,0.281-0.23,0.42-0.47,0.42c-0.23,0-4.341,0-4.341,0V94.374z
		 M104.688,99.065c0,0.33-0.34,0.49-0.58,0.49s-4.32,0-4.32,0v-2.4c0,0,3.99,0,4.37,0c0.381,0,0.53,0.209,0.53,0.469V99.065z"/>
	<path class="st1" d="M125.585,96.024v-1.449c0-0.59-0.17-1.051-0.83-1.051c-0.659,0-6.279,0-6.279,0v6.881c0,0,5.27,0,5.87,0
		c0.609,0,1.239-0.6,1.239-1v-1.471c0-0.949-1.05-1.16-1.05-1.16C124.915,96.774,125.585,96.415,125.585,96.024z M119.556,94.374
		c0,0,4.01,0,4.39,0c0.37,0,0.42,0.182,0.42,0.4v1.25c0,0.281-0.23,0.42-0.47,0.42c-0.23,0-4.34,0-4.34,0V94.374z M124.455,99.065
		c0,0.33-0.34,0.49-0.58,0.49s-4.319,0-4.319,0v-2.4c0,0,3.989,0,4.369,0c0.381,0,0.53,0.209,0.53,0.469V99.065z"/>
	<circle class="st1" cx="150.067" cy="99.557" r="0.766"/>
	<path class="st1" d="M161.209,102.756c0,0,0.609,0,0.779,0s0.44-0.25,0.44-0.531c0-0.279-0.03-1.119-0.03-1.25
		c0-0.119-0.03-0.318-0.52-0.318c-0.48,0-3.19,0-3.19,0v3.49h0.63v-1.352h1.08l1.26,1.352h0.99L161.209,102.756z M159.349,102.305
		v-1.199c0,0,1.97,0,2.22,0s0.261,0.4,0.261,0.67c0,0.26-0.03,0.529-0.23,0.529S159.349,102.305,159.349,102.305z"/>
	<path class="st0" d="M77.681,63.582c2.547,0.469,6.963,1.957,7.406,6.632C82.718,70.136,79.039,69.077,77.681,63.582
		 M101.64,48.136c-0.138,1.983-0.76,5.152-3.156,7.59c-1.968,2.004-4.836,3.174-8.54,3.489
		C90.273,56.671,92.063,50.423,101.64,48.136 M101.206,57.925c4.797-4.888,4.086-11.715,4.054-12.002l-0.199-1.766l-1.928,0.307
		C86.512,47.098,86.225,59.408,86.229,60.35v5.126c-0.279-0.375-0.59-0.73-0.938-1.068c-3.471-3.387-9.052-3.601-9.288-3.608
		l-1.666-0.052l0.212,1.499c1.379,9.782,8.639,10.541,10.832,10.541c0.335,0,0.621-0.014,0.85-0.034v20.555l10.844,23.408
		l0.019,0.039c0.343,0.689-0.058,1.148-0.296,1.336l-0.111,0.086c-4.014,3.369-10.74,3.426-14.391,3.16
		c-5.628-0.408-9.795-1.854-10.485-2.352c-0.857-0.889-0.544-2.314-0.473-2.592c4.978-11.334,10.567-22.627,10.624-22.74l0.16-0.324
		v-9.092c0-0.913-0.815-1.653-1.822-1.653c-1.005,0-1.82,0.74-1.82,1.653v8.387c-0.959,1.943-6.023,12.285-10.567,22.641
		l-0.054,0.141c-0.418,1.275-0.615,3.941,1.285,5.83c1.601,1.594,8.422,3.25,14.312,3.477c0.49,0.02,1.002,0.031,1.527,0.031
		c4.511,0,10.156-0.797,14.135-4.105c1.016-0.762,2.516-2.762,1.311-5.221L89.877,92.643V62.538
		C94.718,62.202,98.522,60.653,101.206,57.925"/>
</g>
</svg>
