<?xml version="1.0" encoding="utf-8"?>
<!-- Generator: Adobe Illustrator 16.0.0, SVG Export Plug-In . SVG Version: 6.00 Build 0)  -->
<!DOCTYPE svg PUBLIC "-//W3C//DTD SVG 1.1//EN" "http://www.w3.org/Graphics/SVG/1.1/DTD/svg11.dtd">
<svg version="1.1" id="Layer_1" xmlns="http://www.w3.org/2000/svg" xmlns:xlink="http://www.w3.org/1999/xlink" x="0px" y="0px"
	 width="209.867px" height="77.119px" viewBox="0 43.774 209.867 77.119" style="enable-background:new 0 43.774 209.867 77.119;"
	 xml:space="preserve">
<style type="text/css">
<![CDATA[
	.st0{fill:#FFFFFF;}
]]>
</style>
<g>
	<g>
		<polygon class="st0" points="4.032,47.32 6.262,47.32 6.262,59.532 17.209,59.532 17.209,61.468 4.032,61.468 		"/>
		<path class="st0" d="M30.094,47.327h-2.937L19.43,61.468h2.749l1.647-3.397h9.663l1.645,3.397h3.104L30.094,47.327z
			 M24.782,56.155l3.812-7.143l3.832,7.143H24.782z"/>
		<path class="st0" d="M54.647,51.107h2.18c0,0,0-1.456,0-2.263c0-0.808-1.21-1.524-2.18-1.524s-9.293,0-10.505,0
			c-1.212,0-1.698,0.968-1.698,1.892s0,3.43,0,4.399c0,0.97,1.212,1.454,2.264,1.454c1.051,0,10.181,0,10.181,0v4.446H44.063v-2.506
			l-2.185,0.808c0,0,0,1.535,0,2.424c0,0.889,0.728,1.231,1.698,1.231s9.777,0,11.473,0c1.698,0,2.103-0.907,2.103-2.443
			s0-2.585,0-4.041c0-1.452-0.891-2.018-2.424-2.018c-1.536,0-10.263,0-10.263,0v-3.881h10.1L54.647,51.107z"/>
	</g>
	<g>
		<polygon class="st0" points="95.06,47.32 97.289,47.32 97.289,59.532 108.237,59.532 108.237,61.468 95.06,61.468 		"/>
		<path class="st0" d="M121.122,47.327h-2.938l-7.726,14.142h2.746l1.648-3.397h9.662l1.646,3.397h3.104L121.122,47.327z
			 M115.81,56.155l3.812-7.143l3.831,7.143H115.81z"/>
		<path class="st0" d="M181.026,47.327h-2.936l-7.728,14.142h2.748l1.646-3.397h9.664l1.646,3.397h3.103L181.026,47.327z
			 M175.715,56.155l3.811-7.143l3.833,7.143H175.715z"/>
		<path class="st0" d="M205.519,51.107h2.181c0,0,0-1.456,0-2.263c0-0.808-1.21-1.524-2.181-1.524c-0.97,0-9.293,0-10.505,0
			s-1.698,0.968-1.698,1.892s0,3.43,0,4.399c0,0.97,1.213,1.454,2.264,1.454c1.052,0,10.181,0,10.181,0v4.446h-10.825v-2.506
			l-2.185,0.808c0,0,0,1.535,0,2.424c0,0.889,0.729,1.231,1.698,1.231c0.971,0,9.776,0,11.473,0c1.699,0,2.104-0.907,2.104-2.443
			s0-2.585,0-4.041c0-1.452-0.891-2.018-2.424-2.018c-1.535,0-10.264,0-10.264,0v-3.881h10.101L205.519,51.107z"/>
		<polygon class="st0" points="133.29,61.468 133.29,47.064 135.113,47.064 147.176,58.344 147.176,47.064 149.258,47.064 
			149.258,61.468 147.436,61.468 135.373,50.273 135.373,61.468 		"/>
		<path class="st0" d="M87.083,47.117c-1.418,0-12.663,0-12.663,0v14.352h2.227v-5.708c0,0,9.435,0,10.31,0
			c0.874,0,1.853-0.374,1.853-1.479v-5.184C88.81,48.244,88.519,47.117,87.083,47.117z M86.666,53.221
			c0,0.498-0.25,0.852-0.875,0.852c-0.626,0-9.144,0-9.144,0v-5.227c0,0,7.914,0,8.728,0c0.812,0,1.291,0.439,1.291,0.875V53.221z"
			/>
		<polygon class="st0" points="169.09,47.097 169.09,49.179 162.051,49.179 162.051,61.468 159.969,61.468 159.969,49.179 
			153.471,49.179 153.471,47.097 		"/>
	</g>
</g>
<g>
	<g>
		<polygon class="st0" points="20.195,86.34 20.195,71.937 22.018,71.937 34.079,83.216 34.079,71.937 36.161,71.937 36.161,86.34 
			34.339,86.34 22.278,75.15 22.278,86.34 		"/>
		<path class="st0" d="M57.862,71.93H45.846c-1.334,0-2.479,0.438-2.479,2c0,0,0,9.374,0,10.683c0,1.293,0.333,1.728,2,1.728h12.496
			c0.854,0,1.812-0.435,1.812-2.269V73.93C59.675,72.534,59.758,71.93,57.862,71.93z M57.509,84.425H45.846V74.096h11.663V84.425z"
			/>
	</g>
	<g>
		<polygon class="st0" points="165.246,86.34 165.246,71.937 167.068,71.937 179.129,83.216 179.129,71.937 181.212,71.937 
			181.212,86.34 179.39,86.34 167.329,75.15 167.329,86.34 		"/>
		<path class="st0" d="M111.104,71.93H99.085c-1.332,0-2.477,0.438-2.477,2c0,0,0,9.374,0,10.683c0,1.293,0.333,1.728,1.999,1.728
			h12.497c0.854,0,1.811-0.435,1.811-2.269V73.93C112.914,72.534,112.998,71.93,111.104,71.93z M110.748,84.425H99.085V74.096
			h11.663V84.425z"/>
		<path class="st0" d="M88.016,80.737v3.688h-9.945V74.096h9.945v3.083l2.167-0.596V73.93c0-1.396,0.083-2-1.812-2H78.071
			c-1.333,0-2.478,0.438-2.478,2c0,0,0,9.374,0,10.683c0,1.293,0.333,1.728,2,1.728H88.37c0.854,0,1.812-0.435,1.812-2.269v-2.739
			L88.016,80.737z"/>
		<polygon class="st0" points="120.385,86.345 120.385,71.906 122.409,71.906 129.328,80.914 135.679,71.906 138.198,71.906 
			138.198,86.345 135.679,86.345 135.679,75.833 129.291,84.344 122.551,75.695 122.551,86.345 		"/>
		<polygon class="st0" points="147.814,74.111 147.814,77.831 155.229,77.831 155.229,79.952 147.814,79.952 147.814,84.197 
			159.602,84.197 159.602,86.34 145.148,86.34 145.148,71.906 159.602,71.906 159.602,74.111 		"/>
		<path class="st0" d="M191.864,84.442c0,0.105,0,0.188-0.022,0.292c0,0-0.021,0.041-0.042,0.122
			c-0.04,0.212-0.124,0.419-0.249,0.607c-0.438,0.955-1.208,2.582-1.896,3.27h-1.436c0,0,1.146-1.248,1.623-2.502
			c-0.915-0.081-1.623-0.854-1.623-1.789c0-1.001,0.812-1.832,1.833-1.832C191.05,82.61,191.864,83.441,191.864,84.442z"/>
	</g>
</g>
<g>
	<polygon class="st0" points="135.007,110.483 135.007,96.079 136.829,96.079 148.89,107.359 148.89,96.079 150.973,96.079 
		150.973,110.483 149.15,110.483 137.09,99.293 137.09,110.483 	"/>
	<polygon class="st0" points="117.574,98.251 117.574,101.974 124.99,101.974 124.99,104.092 117.574,104.092 117.574,108.339 
		129.362,108.339 129.362,110.483 114.908,110.483 114.908,96.047 129.362,96.047 129.362,98.251 	"/>
	<polygon class="st0" points="77.135,98.251 77.135,101.974 84.551,101.974 84.551,104.092 77.135,104.092 77.135,108.339 
		88.924,108.339 88.924,110.483 74.469,110.483 74.469,96.047 88.924,96.047 88.924,98.251 	"/>
	<path class="st0" d="M67.794,101.31v-3.022c0-1.228-0.354-2.184-1.729-2.184c-1.373,0-13.08,0-13.08,0v14.326
		c0,0,10.977,0,12.228,0c1.269,0,2.581-1.248,2.581-2.082v-3.06c0-1.98-2.187-2.416-2.187-2.416
		C66.398,102.873,67.794,102.12,67.794,101.31z M55.235,97.874c0,0,8.353,0,9.144,0c0.771,0,0.875,0.374,0.875,0.833v2.604
		c0,0.582-0.48,0.874-0.978,0.874c-0.48,0-9.041,0-9.041,0V97.874z M65.44,107.64c0,0.688-0.708,1.021-1.208,1.021
		c-0.5,0-8.998,0-8.998,0v-5c0,0,8.311,0,9.101,0c0.793,0,1.104,0.439,1.104,0.979V107.64z"/>
	<path class="st0" d="M108.961,101.31v-3.022c0-1.228-0.354-2.184-1.729-2.184c-1.373,0-13.078,0-13.078,0v14.326
		c0,0,10.975,0,12.225,0c1.27,0,2.581-1.248,2.581-2.082v-3.06c0-1.98-2.187-2.416-2.187-2.416
		C107.566,102.873,108.961,102.12,108.961,101.31z M96.404,97.874c0,0,8.351,0,9.143,0c0.771,0,0.874,0.374,0.874,0.833v2.604
		c0,0.582-0.48,0.874-0.979,0.874c-0.48,0-9.038,0-9.038,0V97.874z M106.608,107.64c0,0.688-0.708,1.021-1.208,1.021
		c-0.5,0-8.996,0-8.996,0v-5c0,0,8.308,0,9.099,0c0.794,0,1.105,0.439,1.105,0.979V107.64z"/>
	<circle class="st0" cx="159.949" cy="108.665" r="1.595"/>
</g>
<g>
	<polygon class="st0" points="165.354,118.224 165.354,110.952 166.373,110.952 169.859,115.491 173.058,110.952 174.327,110.952 
		174.327,118.224 173.058,118.224 173.058,112.932 169.84,117.219 166.446,112.858 166.446,118.224 	"/>
	<path class="st0" d="M183.154,115.328c0,0,1.269,0,1.623,0s0.917-0.521,0.917-1.102c0-0.582-0.062-2.332-0.062-2.604
		c0-0.249-0.063-0.668-1.082-0.668c-1.001,0-6.646,0-6.646,0v7.27h1.312v-2.811h2.25l2.622,2.811h2.063L183.154,115.328z
		 M179.279,114.393v-2.499c0,0,4.103,0,4.623,0s0.543,0.831,0.543,1.396c0,0.54-0.062,1.103-0.479,1.103
		S179.279,114.393,179.279,114.393z"/>
</g>
</svg>
