<?xml version="1.0" encoding="utf-8"?>
<!-- Generator: Adobe Illustrator 16.0.0, SVG Export Plug-In . SVG Version: 6.00 Build 0)  -->
<!DOCTYPE svg PUBLIC "-//W3C//DTD SVG 1.1//EN" "http://www.w3.org/Graphics/SVG/1.1/DTD/svg11.dtd">
<svg version="1.1" id="Layer_1" xmlns="http://www.w3.org/2000/svg" xmlns:xlink="http://www.w3.org/1999/xlink" x="0px" y="0px"
	 width="209.867px" height="164.667px" viewBox="0 -55.833 209.867 164.667"
	 style="enable-background:new 0 -55.833 209.867 164.667;" xml:space="preserve">
<style type="text/css">
<![CDATA[
	.st0{fill:#8DC63F;}
	.st1{fill:#929496;}
	.st2{fill:#0092C2;}
]]>
</style>
<g>
	<path class="st0" d="M95.888-28.393c3.426,0.631,9.367,2.632,9.963,8.92C102.666-19.577,97.717-21.001,95.888-28.393
		 M128.116-49.17c-0.184,2.667-1.021,6.93-4.243,10.209c-2.648,2.696-6.506,4.27-11.488,4.694
		C112.828-37.689,115.236-46.094,128.116-49.17 M127.533-36.003c6.455-6.575,5.498-15.759,5.454-16.146l-0.268-2.374l-2.593,0.412
		c-22.359,3.544-22.743,20.103-22.737,21.371v6.895c-0.375-0.504-0.794-0.982-1.26-1.436c-4.67-4.556-12.177-4.845-12.495-4.854
		l-2.241-0.07l0.285,2.016c1.854,13.157,11.62,14.179,14.57,14.179c0.451,0,0.836-0.019,1.142-0.045v27.65l14.588,31.486
		l0.025,0.052c0.461,0.93-0.077,1.545-0.4,1.799l-0.147,0.115c-5.402,4.532-14.449,4.61-19.359,4.252
		c-7.569-0.551-13.175-2.494-14.104-3.166c-1.153-1.194-0.732-3.111-0.636-3.487c6.695-15.246,14.215-30.435,14.291-30.587
		l0.216-0.435V-0.605c0-1.228-1.098-2.223-2.451-2.223s-2.45,0.995-2.45,2.223v11.279c-1.289,2.615-8.101,16.525-14.215,30.454
		l-0.071,0.191c-0.562,1.717-0.828,5.3,1.729,7.843c2.153,2.142,11.329,4.371,19.252,4.675c0.659,0.026,1.348,0.042,2.056,0.042
		c6.066,0,13.661-1.072,19.012-5.519c1.368-1.028,3.384-3.718,1.762-7.025l-14.193-30.636v-40.497
		C118.805-30.25,123.926-32.333,127.533-36.003"/>
	<path class="st1" d="M7.719,103.672c0,0.25-0.062,0.521-0.185,0.812c-0.124,0.292-0.317,0.576-0.581,0.857
		c-0.265,0.278-0.602,0.508-1.013,0.683s-0.889,0.263-1.435,0.263c-0.414,0-0.791-0.041-1.13-0.118
		c-0.339-0.078-0.647-0.2-0.924-0.367c-0.276-0.165-0.531-0.385-0.763-0.656c-0.207-0.246-0.384-0.523-0.53-0.828
		c-0.146-0.306-0.256-0.63-0.33-0.977c-0.073-0.346-0.111-0.714-0.111-1.104c0-0.632,0.093-1.197,0.277-1.697
		c0.184-0.501,0.447-0.928,0.79-1.283s0.745-0.627,1.206-0.812c0.46-0.187,0.952-0.278,1.473-0.278c0.636,0,1.201,0.125,1.698,0.38
		c0.497,0.253,0.876,0.566,1.141,0.94c0.265,0.373,0.396,0.726,0.396,1.058c0,0.183-0.064,0.343-0.193,0.481
		s-0.284,0.209-0.466,0.209c-0.204,0-0.356-0.048-0.458-0.146c-0.102-0.096-0.216-0.262-0.341-0.497
		c-0.207-0.389-0.451-0.68-0.73-0.872c-0.281-0.194-0.626-0.29-1.037-0.29c-0.653,0-1.173,0.249-1.561,0.745
		c-0.387,0.496-0.581,1.201-0.581,2.116c0,0.608,0.086,1.117,0.257,1.522c0.171,0.406,0.414,0.709,0.728,0.908
		c0.314,0.199,0.683,0.299,1.104,0.299c0.457,0,0.844-0.112,1.16-0.339s0.555-0.56,0.715-0.999c0.068-0.207,0.152-0.377,0.252-0.506
		c0.1-0.131,0.261-0.197,0.482-0.197c0.189,0,0.352,0.067,0.487,0.199C7.651,103.312,7.719,103.476,7.719,103.672"/>
	<path class="st1" d="M15.139,99.13v2.249h3.433V99.13c0-0.321,0.073-0.562,0.217-0.723c0.144-0.161,0.334-0.242,0.57-0.242
		c0.239,0,0.433,0.081,0.581,0.239c0.148,0.158,0.223,0.399,0.223,0.726v6.186c0,0.325-0.075,0.569-0.225,0.729
		c-0.15,0.161-0.343,0.242-0.578,0.242c-0.24,0-0.431-0.081-0.574-0.244c-0.142-0.163-0.214-0.404-0.214-0.727v-2.64h-3.433v2.64
		c0,0.325-0.075,0.569-0.225,0.729c-0.15,0.161-0.343,0.242-0.579,0.242c-0.239,0-0.43-0.081-0.573-0.244
		c-0.143-0.163-0.214-0.404-0.214-0.727V99.13c0-0.321,0.071-0.562,0.211-0.723c0.141-0.161,0.333-0.242,0.576-0.242
		c0.24,0,0.433,0.081,0.581,0.239C15.064,98.563,15.139,98.804,15.139,99.13"/>
	<path class="st1" d="M31.434,99.527H27.85v1.927h3.299c0.243,0,0.424,0.057,0.544,0.164c0.119,0.11,0.179,0.253,0.179,0.432
		c0,0.178-0.059,0.323-0.176,0.436c-0.118,0.113-0.3,0.169-0.546,0.169H27.85v2.233h3.706c0.25,0,0.438,0.059,0.565,0.175
		c0.126,0.117,0.19,0.271,0.19,0.464c0,0.185-0.063,0.337-0.19,0.452c-0.127,0.116-0.315,0.175-0.565,0.175h-4.322
		c-0.346,0-0.595-0.076-0.747-0.23c-0.151-0.155-0.228-0.401-0.228-0.744v-5.904c0-0.228,0.034-0.413,0.102-0.56
		c0.068-0.144,0.174-0.248,0.319-0.316c0.145-0.064,0.33-0.099,0.554-0.099h4.2c0.253,0,0.441,0.057,0.564,0.17
		c0.124,0.112,0.185,0.259,0.185,0.44c0,0.187-0.062,0.336-0.185,0.448C31.875,99.469,31.687,99.527,31.434,99.527"/>
	<path class="st1" d="M40.615,104.968l-1.259-5.002v5.421c0,0.299-0.067,0.524-0.201,0.674c-0.134,0.15-0.311,0.226-0.533,0.226
		c-0.214,0-0.389-0.074-0.524-0.222c-0.136-0.148-0.204-0.375-0.204-0.678v-6.215c0-0.342,0.089-0.573,0.268-0.692
		c0.179-0.12,0.419-0.181,0.723-0.181h0.492c0.297,0,0.512,0.027,0.646,0.081c0.134,0.054,0.234,0.15,0.298,0.289
		c0.064,0.14,0.137,0.366,0.219,0.681l1.141,4.302l1.142-4.302c0.082-0.314,0.155-0.541,0.219-0.681
		c0.065-0.139,0.165-0.235,0.297-0.289c0.134-0.054,0.35-0.081,0.646-0.081h0.493c0.303,0,0.545,0.061,0.723,0.181
		c0.179,0.119,0.269,0.351,0.269,0.692v6.215c0,0.299-0.068,0.524-0.201,0.674c-0.134,0.15-0.314,0.226-0.539,0.226
		c-0.21,0-0.384-0.075-0.519-0.226c-0.136-0.149-0.204-0.375-0.204-0.674v-5.421l-1.259,5.002c-0.083,0.325-0.149,0.562-0.201,0.715
		c-0.051,0.153-0.147,0.291-0.287,0.416c-0.139,0.124-0.332,0.188-0.579,0.188c-0.186,0-0.342-0.041-0.471-0.121
		c-0.128-0.08-0.228-0.184-0.3-0.309c-0.071-0.124-0.127-0.262-0.168-0.415C40.699,105.292,40.657,105.132,40.615,104.968"/>
	<path class="st1" d="M51.554,105.316V99.13c0-0.322,0.073-0.562,0.219-0.723c0.146-0.161,0.335-0.242,0.568-0.242
		c0.239,0,0.433,0.081,0.581,0.239c0.148,0.158,0.222,0.399,0.222,0.726v6.186c0,0.325-0.074,0.569-0.222,0.729
		c-0.148,0.16-0.342,0.24-0.581,0.24c-0.229,0-0.417-0.08-0.565-0.243C51.627,105.879,51.554,105.638,51.554,105.316"/>
	<path class="st1" d="M66,103.672c0,0.25-0.062,0.521-0.185,0.812c-0.123,0.292-0.317,0.576-0.581,0.857
		c-0.265,0.278-0.602,0.508-1.013,0.683s-0.889,0.263-1.436,0.263c-0.414,0-0.791-0.041-1.13-0.118
		c-0.339-0.078-0.647-0.2-0.924-0.367c-0.277-0.165-0.531-0.385-0.763-0.656c-0.208-0.246-0.384-0.523-0.53-0.828
		c-0.146-0.306-0.256-0.63-0.33-0.977c-0.073-0.346-0.11-0.714-0.11-1.104c0-0.632,0.092-1.197,0.276-1.697
		c0.184-0.501,0.447-0.928,0.791-1.283c0.342-0.355,0.744-0.627,1.205-0.812c0.461-0.187,0.952-0.278,1.473-0.278
		c0.636,0,1.201,0.125,1.698,0.38c0.497,0.253,0.876,0.566,1.141,0.94c0.264,0.373,0.396,0.726,0.396,1.058
		c0,0.183-0.064,0.343-0.193,0.481c-0.128,0.139-0.284,0.209-0.466,0.209c-0.204,0-0.356-0.048-0.458-0.146
		c-0.102-0.096-0.215-0.262-0.34-0.497c-0.207-0.389-0.451-0.68-0.731-0.872c-0.28-0.194-0.626-0.29-1.037-0.29
		c-0.653,0-1.174,0.249-1.561,0.745c-0.388,0.496-0.581,1.201-0.581,2.116c0,0.608,0.086,1.117,0.257,1.522
		c0.171,0.406,0.414,0.709,0.728,0.908c0.314,0.199,0.683,0.299,1.104,0.299c0.457,0,0.844-0.112,1.16-0.339s0.554-0.56,0.715-0.999
		c0.068-0.207,0.152-0.377,0.252-0.506c0.1-0.131,0.261-0.197,0.482-0.197c0.189,0,0.352,0.067,0.487,0.199
		C65.932,103.312,66,103.476,66,103.672"/>
	<path class="st1" d="M73.693,103.083h2.346l-1.184-3.24L73.693,103.083z M76.843,105.263l-0.375-0.985h-3.192l-0.376,1.007
		c-0.146,0.394-0.271,0.658-0.374,0.796c-0.104,0.137-0.273,0.206-0.509,0.206c-0.2,0-0.377-0.074-0.529-0.22
		c-0.154-0.147-0.231-0.312-0.231-0.498c0-0.107,0.017-0.219,0.053-0.333c0.037-0.114,0.096-0.272,0.178-0.478l2.008-5.098
		c0.057-0.147,0.125-0.322,0.206-0.527c0.081-0.206,0.166-0.375,0.256-0.513c0.091-0.134,0.212-0.245,0.36-0.329
		c0.148-0.083,0.33-0.125,0.549-0.125c0.221,0,0.405,0.042,0.554,0.125c0.148,0.084,0.268,0.192,0.359,0.324
		c0.091,0.133,0.168,0.273,0.23,0.426s0.142,0.354,0.238,0.608l2.051,5.066c0.161,0.386,0.241,0.666,0.241,0.842
		c0,0.183-0.076,0.349-0.228,0.501c-0.152,0.151-0.335,0.228-0.549,0.228c-0.125,0-0.232-0.022-0.321-0.067
		c-0.089-0.044-0.165-0.104-0.225-0.183c-0.062-0.076-0.127-0.194-0.196-0.354C76.952,105.525,76.893,105.384,76.843,105.263"/>
	<path class="st1" d="M85.654,99.13v5.715h3.225c0.257,0,0.454,0.062,0.592,0.188c0.137,0.126,0.206,0.281,0.206,0.473
		c0,0.192-0.068,0.348-0.204,0.468c-0.135,0.119-0.333,0.179-0.594,0.179h-3.84c-0.347,0-0.595-0.075-0.747-0.229
		s-0.228-0.401-0.228-0.744V99.13c0-0.321,0.072-0.562,0.216-0.723c0.145-0.161,0.335-0.242,0.571-0.242
		c0.239,0,0.432,0.081,0.58,0.239S85.654,98.804,85.654,99.13"/>
	<path class="st1" d="M102.304,105.316V99.13c0-0.322,0.073-0.562,0.22-0.723c0.146-0.161,0.335-0.242,0.567-0.242
		c0.239,0,0.433,0.081,0.582,0.239s0.222,0.399,0.222,0.726v6.186c0,0.325-0.074,0.569-0.222,0.729s-0.342,0.24-0.582,0.24
		c-0.229,0-0.417-0.08-0.565-0.243S102.304,105.638,102.304,105.316"/>
	<path class="st1" d="M112.134,99.12l3.058,4.628v-4.671c0-0.303,0.065-0.532,0.195-0.684c0.131-0.151,0.306-0.228,0.527-0.228
		c0.229,0,0.409,0.076,0.542,0.228c0.132,0.151,0.197,0.381,0.197,0.684v6.177c0,0.688-0.284,1.033-0.856,1.033
		c-0.143,0-0.271-0.021-0.386-0.062c-0.113-0.04-0.222-0.105-0.321-0.195s-0.192-0.193-0.278-0.313s-0.172-0.242-0.257-0.366
		l-2.983-4.575v4.603c0,0.3-0.07,0.525-0.209,0.68c-0.14,0.154-0.317,0.23-0.536,0.23c-0.224,0-0.404-0.078-0.541-0.234
		c-0.136-0.155-0.202-0.381-0.202-0.676v-6.059c0-0.258,0.027-0.458,0.085-0.605c0.068-0.16,0.181-0.292,0.337-0.395
		c0.157-0.101,0.327-0.152,0.509-0.152c0.143,0,0.266,0.023,0.368,0.069c0.101,0.048,0.19,0.109,0.268,0.188
		c0.076,0.079,0.155,0.181,0.235,0.306C111.964,98.855,112.047,98.984,112.134,99.12"/>
	<path class="st1" d="M124.385,99.559v5.328h1.205c0.264,0,0.471-0.007,0.621-0.021c0.15-0.015,0.305-0.051,0.465-0.106
		c0.162-0.059,0.3-0.139,0.418-0.242c0.532-0.45,0.799-1.225,0.799-2.323c0-0.775-0.117-1.356-0.351-1.741
		c-0.234-0.386-0.522-0.632-0.866-0.737c-0.343-0.104-0.756-0.157-1.242-0.157H124.385z M123.768,98.299h2.074
		c0.538,0,1.001,0.051,1.387,0.15c0.385,0.101,0.735,0.288,1.049,0.562c0.818,0.7,1.227,1.764,1.227,3.192
		c0,0.472-0.041,0.901-0.123,1.291c-0.082,0.389-0.209,0.74-0.38,1.053c-0.172,0.312-0.391,0.592-0.659,0.838
		c-0.211,0.189-0.44,0.341-0.69,0.455c-0.25,0.115-0.519,0.194-0.807,0.241c-0.287,0.047-0.611,0.069-0.972,0.069h-2.072
		c-0.29,0-0.508-0.043-0.654-0.131s-0.242-0.211-0.286-0.369c-0.045-0.158-0.067-0.366-0.067-0.619v-5.759
		c0-0.342,0.077-0.59,0.23-0.743C123.177,98.376,123.426,98.299,123.768,98.299"/>
	<path class="st1" d="M135.301,102.906V99.13c0-0.321,0.072-0.562,0.218-0.723c0.144-0.161,0.335-0.242,0.569-0.242
		c0.247,0,0.442,0.081,0.588,0.242c0.145,0.16,0.217,0.401,0.217,0.723v3.861c0,0.44,0.049,0.807,0.146,1.102
		c0.099,0.295,0.273,0.522,0.523,0.686c0.25,0.161,0.6,0.243,1.05,0.243c0.621,0,1.061-0.165,1.317-0.496
		c0.258-0.33,0.387-0.831,0.387-1.502V99.13c0-0.325,0.07-0.567,0.213-0.726c0.144-0.16,0.334-0.239,0.574-0.239
		c0.238,0,0.432,0.079,0.58,0.239c0.148,0.158,0.222,0.4,0.222,0.726v3.775c0,0.615-0.059,1.127-0.179,1.538
		c-0.119,0.41-0.346,0.771-0.678,1.082c-0.285,0.264-0.617,0.456-0.996,0.578s-0.821,0.183-1.328,0.183
		c-0.603,0-1.122-0.065-1.559-0.195c-0.436-0.131-0.79-0.333-1.065-0.606c-0.275-0.272-0.478-0.622-0.605-1.049
		C135.365,104.009,135.301,103.5,135.301,102.906"/>
	<path class="st1" d="M153.979,103.795c0,0.476-0.122,0.901-0.366,1.28c-0.245,0.38-0.604,0.675-1.074,0.889
		c-0.472,0.215-1.031,0.322-1.677,0.322c-0.775,0-1.414-0.147-1.918-0.439c-0.356-0.211-0.646-0.492-0.87-0.844
		c-0.223-0.352-0.335-0.693-0.335-1.026c0-0.191,0.067-0.358,0.201-0.495s0.304-0.207,0.512-0.207c0.167,0,0.31,0.056,0.425,0.162
		c0.116,0.106,0.216,0.266,0.298,0.476c0.1,0.251,0.208,0.46,0.324,0.628s0.279,0.306,0.49,0.414c0.21,0.109,0.487,0.163,0.83,0.163
		c0.471,0,0.854-0.108,1.148-0.328c0.295-0.22,0.442-0.494,0.442-0.822c0-0.261-0.08-0.474-0.238-0.635
		c-0.159-0.163-0.364-0.286-0.616-0.373c-0.251-0.086-0.588-0.176-1.01-0.272c-0.564-0.133-1.037-0.287-1.416-0.464
		c-0.381-0.177-0.683-0.417-0.905-0.723c-0.224-0.306-0.335-0.685-0.335-1.138c0-0.433,0.117-0.816,0.353-1.153
		c0.237-0.334,0.577-0.593,1.024-0.773c0.445-0.18,0.971-0.27,1.574-0.27c0.481,0,0.898,0.06,1.251,0.18
		c0.351,0.12,0.643,0.277,0.875,0.475c0.232,0.2,0.401,0.408,0.51,0.624c0.106,0.219,0.159,0.433,0.159,0.639
		c0,0.188-0.066,0.36-0.2,0.512c-0.134,0.152-0.301,0.228-0.501,0.228c-0.182,0-0.32-0.045-0.415-0.136
		c-0.094-0.092-0.197-0.241-0.308-0.448c-0.143-0.297-0.313-0.527-0.515-0.693c-0.199-0.166-0.521-0.25-0.964-0.25
		c-0.411,0-0.742,0.091-0.993,0.271c-0.252,0.18-0.379,0.397-0.379,0.651c0,0.156,0.044,0.292,0.13,0.406
		c0.085,0.113,0.203,0.213,0.353,0.295c0.15,0.082,0.303,0.146,0.456,0.192c0.153,0.047,0.407,0.114,0.761,0.203
		c0.442,0.104,0.844,0.218,1.202,0.343c0.358,0.126,0.664,0.277,0.916,0.456s0.447,0.405,0.59,0.678
		C153.91,103.064,153.979,103.398,153.979,103.795"/>
	<path class="st1" d="M164.816,99.612h-1.735v5.704c0,0.33-0.073,0.573-0.22,0.731s-0.336,0.239-0.567,0.239
		c-0.236,0-0.428-0.081-0.576-0.241s-0.223-0.404-0.223-0.729v-5.704h-1.734c-0.273,0-0.474-0.061-0.606-0.179
		c-0.131-0.12-0.199-0.276-0.199-0.476c0-0.203,0.07-0.362,0.208-0.48c0.137-0.118,0.336-0.176,0.598-0.176h5.056
		c0.274,0,0.479,0.059,0.613,0.181s0.201,0.281,0.201,0.476c0,0.199-0.068,0.355-0.204,0.476
		C165.291,99.551,165.088,99.612,164.816,99.612"/>
	<path class="st1" d="M174.009,99.495h-1.468v2.159h1.425c0.382,0,0.703-0.033,0.964-0.101c0.261-0.065,0.46-0.178,0.598-0.337
		c0.137-0.159,0.205-0.378,0.205-0.656c0-0.218-0.055-0.409-0.165-0.576c-0.111-0.165-0.265-0.29-0.461-0.372
		C174.921,99.534,174.555,99.495,174.009,99.495 M173.099,102.793h-0.558v2.523c0,0.332-0.073,0.577-0.22,0.733
		c-0.146,0.157-0.338,0.236-0.573,0.236c-0.254,0-0.45-0.083-0.59-0.247c-0.139-0.164-0.208-0.405-0.208-0.723v-6.043
		c0-0.342,0.077-0.59,0.23-0.743c0.153-0.154,0.401-0.231,0.744-0.231h2.587c0.357,0,0.662,0.016,0.916,0.047
		c0.254,0.029,0.481,0.092,0.686,0.185c0.246,0.103,0.464,0.251,0.654,0.443c0.188,0.193,0.332,0.417,0.431,0.673
		c0.098,0.255,0.147,0.526,0.147,0.812c0,0.587-0.166,1.053-0.496,1.403c-0.33,0.35-0.831,0.599-1.502,0.744
		c0.282,0.15,0.552,0.373,0.809,0.665s0.486,0.604,0.688,0.934c0.203,0.332,0.359,0.63,0.473,0.896
		c0.111,0.266,0.169,0.448,0.169,0.549c0,0.104-0.034,0.206-0.1,0.309c-0.066,0.102-0.156,0.182-0.271,0.24
		s-0.246,0.089-0.396,0.089c-0.179,0-0.329-0.042-0.449-0.126c-0.122-0.084-0.227-0.19-0.314-0.319
		c-0.088-0.128-0.205-0.318-0.355-0.567l-0.638-1.062c-0.229-0.389-0.433-0.684-0.613-0.888c-0.181-0.203-0.364-0.343-0.55-0.419
		C173.613,102.832,173.38,102.793,173.099,102.793"/>
	<path class="st1" d="M183.303,105.316V99.13c0-0.322,0.073-0.562,0.219-0.723c0.146-0.161,0.336-0.242,0.568-0.242
		c0.239,0,0.433,0.081,0.581,0.239c0.147,0.158,0.222,0.399,0.222,0.726v6.186c0,0.325-0.074,0.569-0.222,0.729
		c-0.148,0.16-0.342,0.24-0.581,0.24c-0.229,0-0.417-0.08-0.564-0.243C183.377,105.879,183.303,105.638,183.303,105.316"/>
	<path class="st1" d="M196.233,99.527h-3.583v1.927h3.299c0.244,0,0.424,0.057,0.544,0.164c0.12,0.11,0.18,0.253,0.18,0.432
		c0,0.178-0.059,0.323-0.177,0.436c-0.119,0.113-0.3,0.169-0.547,0.169h-3.299v2.233h3.706c0.25,0,0.438,0.059,0.565,0.175
		c0.127,0.117,0.189,0.271,0.189,0.464c0,0.185-0.062,0.337-0.189,0.452c-0.127,0.116-0.315,0.175-0.565,0.175h-4.322
		c-0.347,0-0.596-0.076-0.747-0.23c-0.151-0.155-0.228-0.401-0.228-0.744v-5.904c0-0.228,0.034-0.413,0.102-0.56
		c0.067-0.144,0.174-0.248,0.319-0.316c0.145-0.064,0.329-0.099,0.554-0.099h4.199c0.253,0,0.442,0.057,0.565,0.17
		c0.123,0.112,0.186,0.259,0.186,0.44c0,0.187-0.062,0.336-0.186,0.448C196.676,99.469,196.486,99.527,196.233,99.527"/>
	<path class="st1" d="M208.73,103.795c0,0.476-0.122,0.901-0.366,1.28c-0.245,0.38-0.604,0.675-1.073,0.889
		c-0.473,0.215-1.031,0.322-1.677,0.322c-0.775,0-1.415-0.147-1.919-0.439c-0.356-0.211-0.646-0.492-0.869-0.844
		c-0.224-0.352-0.335-0.693-0.335-1.026c0-0.191,0.066-0.358,0.2-0.495c0.135-0.137,0.305-0.207,0.513-0.207
		c0.167,0,0.309,0.056,0.425,0.162s0.215,0.266,0.298,0.476c0.1,0.251,0.208,0.46,0.324,0.628c0.115,0.168,0.278,0.306,0.489,0.414
		c0.211,0.109,0.487,0.163,0.83,0.163c0.472,0,0.855-0.108,1.149-0.328s0.441-0.494,0.441-0.822c0-0.261-0.079-0.474-0.238-0.635
		c-0.159-0.163-0.364-0.286-0.616-0.373c-0.252-0.086-0.588-0.176-1.009-0.272c-0.564-0.133-1.037-0.287-1.417-0.464
		s-0.682-0.417-0.904-0.723c-0.224-0.306-0.336-0.685-0.336-1.138c0-0.433,0.118-0.816,0.354-1.153
		c0.235-0.334,0.577-0.593,1.023-0.773c0.446-0.18,0.971-0.27,1.574-0.27c0.482,0,0.898,0.06,1.251,0.18
		c0.352,0.12,0.644,0.277,0.875,0.475c0.232,0.2,0.402,0.408,0.51,0.624c0.106,0.219,0.16,0.433,0.16,0.639
		c0,0.188-0.067,0.36-0.2,0.512c-0.135,0.152-0.301,0.228-0.502,0.228c-0.182,0-0.319-0.045-0.414-0.136
		c-0.095-0.092-0.197-0.241-0.309-0.448c-0.143-0.297-0.314-0.527-0.514-0.693s-0.521-0.25-0.964-0.25
		c-0.411,0-0.742,0.091-0.994,0.271c-0.252,0.18-0.378,0.397-0.378,0.651c0,0.156,0.043,0.292,0.129,0.406
		c0.086,0.113,0.204,0.213,0.354,0.295c0.15,0.082,0.302,0.146,0.455,0.192c0.154,0.047,0.407,0.114,0.761,0.203
		c0.443,0.104,0.844,0.218,1.202,0.343c0.359,0.126,0.664,0.277,0.916,0.456s0.448,0.405,0.59,0.678
		C208.66,103.064,208.73,103.398,208.73,103.795"/>
	<path class="st2" d="M44.51,70.183H27.376h-1.668c-0.333,0-0.603,0.27-0.603,0.603v1.667v6.899v1.668v6.898v1.669
		c0,0.332,0.27,0.604,0.603,0.604h1.668H44.51c0.333,0,0.604-0.271,0.604-0.604v-1.669c0-0.332-0.271-0.603-0.604-0.603H27.979
		v-5.693H44.51c0.333,0,0.604-0.27,0.604-0.603v-1.668c0-0.334-0.271-0.603-0.604-0.603H27.979v-5.693H44.51
		c0.333,0,0.604-0.27,0.604-0.604v-1.667C45.113,70.453,44.843,70.183,44.51,70.183"/>
	<path class="st2" d="M183.396,70.183h-17.135h-1.667c-0.334,0-0.603,0.27-0.603,0.603v1.667v6.899v1.668v6.898v1.669
		c0,0.332,0.269,0.604,0.603,0.604h1.667h17.135c0.333,0,0.602-0.271,0.602-0.604v-1.669c0-0.332-0.269-0.603-0.602-0.603h-16.53
		v-5.693h16.53c0.333,0,0.602-0.27,0.602-0.603v-1.668c0-0.334-0.269-0.603-0.602-0.603h-16.53v-5.693h16.53
		c0.333,0,0.602-0.27,0.602-0.604v-1.667C183.997,70.453,183.729,70.183,183.396,70.183"/>
	<path class="st2" d="M86.042,70.183h-1.667c-0.333,0-0.603,0.27-0.603,0.603v16.53h-9.985l-5.288-5.287
		c-0.211-0.214-0.54-0.233-0.775-0.064c-0.036,0.022-0.07,0.051-0.101,0.079l-5.272,5.272h-9.972v-16.53
		c0-0.333-0.271-0.603-0.604-0.603h-1.667c-0.333,0-0.604,0.27-0.604,0.603v17.133v1.669c0,0.332,0.271,0.604,0.604,0.604h1.667
		h11.439c0.024,0.003,0.047,0.003,0.073,0.003c0.081,0,0.161-0.017,0.235-0.047c0.099-0.042,0.185-0.104,0.249-0.188l4.297-4.295
		l4.354,4.354c0.117,0.117,0.272,0.176,0.427,0.176c0.016,0,0.033-0.002,0.05-0.003h11.475h1.667c0.332,0,0.603-0.271,0.603-0.604
		v-1.669V70.786C86.644,70.453,86.374,70.183,86.042,70.183"/>
	<path class="st2" d="M107.824,76.812l-2.953,2.952c-0.211,0.212-0.229,0.54-0.062,0.775c0.022,0.036,0.05,0.07,0.081,0.101
		l2.935,2.936v3.74H93.563V73.057h14.261V76.812z M110.631,78.038c0.049-0.089,0.076-0.189,0.076-0.292
		c0-0.03-0.003-0.062-0.008-0.094v-5.199v-1.667c0-0.333-0.271-0.604-0.604-0.604h-1.667H92.962h-1.668
		c-0.333,0-0.603,0.271-0.603,0.604v1.667v15.466v1.669c0,0.332,0.27,0.603,0.603,0.603h1.668h15.466h1.667
		c0.333,0,0.604-0.271,0.604-0.603v-1.669v-5.306c0-0.217-0.114-0.404-0.285-0.513l-1.907-1.906l1.961-1.96
		C110.535,78.18,110.591,78.114,110.631,78.038"/>
	<path class="st2" d="M208.222,82.099l-1.906-1.904l1.962-1.962c0.066-0.053,0.121-0.119,0.162-0.195
		c0.048-0.09,0.076-0.189,0.076-0.293c0-0.029-0.003-0.061-0.009-0.092v-5.2v-1.667c0-0.333-0.27-0.603-0.604-0.603h-1.667h-15.466
		h-1.668c-0.333,0-0.603,0.27-0.603,0.603v1.667v17.135c0,0.332,0.27,0.603,0.603,0.603h1.668c0.333,0,0.604-0.271,0.604-0.603
		V73.056h14.259v3.757l-2.952,2.951c-0.211,0.212-0.231,0.54-0.062,0.774c0.022,0.037,0.049,0.071,0.08,0.102l2.935,2.936v6.012
		c0,0.332,0.271,0.603,0.604,0.603h1.667c0.334,0,0.604-0.271,0.604-0.603v-6.975C208.507,82.394,208.393,82.208,208.222,82.099"/>
	<path class="st2" d="M159.09,70.183h-1.667c-0.333,0-0.604,0.27-0.604,0.603v16.53h-14.26v-16.53c0-0.333-0.269-0.603-0.602-0.603
		h-1.669c-0.332,0-0.603,0.27-0.603,0.603v17.133v1.669c0,0.332,0.271,0.604,0.603,0.604h1.669h15.465h1.667
		c0.335,0,0.604-0.271,0.604-0.604v-1.669V70.786C159.693,70.453,159.425,70.183,159.09,70.183"/>
	<path class="st2" d="M132.194,78.268h-14.261v-5.212h14.261V78.268z M134.465,70.183h-1.667h-15.465h-1.668
		c-0.333,0-0.604,0.27-0.604,0.603v1.667v6.42v1.666v9.049c0,0.332,0.271,0.604,0.604,0.604h1.668c0.333,0,0.603-0.271,0.603-0.604
		v-8.445h14.259v8.445c0,0.332,0.271,0.604,0.604,0.604h1.667c0.332,0,0.604-0.271,0.604-0.604v-9.049v-1.666v-6.42v-1.667
		C135.069,70.453,134.797,70.183,134.465,70.183"/>
	<path class="st2" d="M20.508,69.912h-1.695c-0.333,0-0.603,0.27-0.603,0.604v15.098L3.675,70.36
		c-0.068-0.259-0.302-0.448-0.583-0.448H1.397c-0.333,0-0.603,0.27-0.603,0.604v19.113c0,0.335,0.27,0.604,0.603,0.604h1.695
		c0.333,0,0.605-0.269,0.605-0.604V74.601l14.484,15.201c0.023,0.027,0.05,0.049,0.079,0.07c0.093,0.212,0.305,0.359,0.552,0.359
		h1.695c0.333,0,0.604-0.269,0.604-0.604V70.515C21.112,70.181,20.84,69.912,20.508,69.912"/>
</g>
</svg>
