<?xml version="1.0" encoding="utf-8"?>
<!-- Generator: Adobe Illustrator 17.0.0, SVG Export Plug-In . SVG Version: 6.00 Build 0)  -->
<!DOCTYPE svg PUBLIC "-//W3C//DTD SVG 1.1//EN" "http://www.w3.org/Graphics/SVG/1.1/DTD/svg11.dtd">
<svg version="1.1" id="Layer_1" xmlns="http://www.w3.org/2000/svg" xmlns:xlink="http://www.w3.org/1999/xlink" x="0px" y="0px"
	 width="307px" height="23px" viewBox="-90.566 101.06 307 23" style="enable-background:new -90.566 101.06 307 23;"
	 xml:space="preserve">
<style type="text/css">
	.st0{fill:#FFFFFF;}
</style>
<rect x="-90.566" y="101.06" width="307" height="23"/>
<g>
	<g>
		<polygon class="st0" points="-86.248,108.865 -85.009,108.865 -85.009,115.653 -78.923,115.653 -78.923,116.73 -86.248,116.73 		
			"/>
		<path class="st0" d="M-71.761,108.869h-1.633l-4.295,7.861h1.528l0.916-1.888h5.371l0.914,1.888h1.725L-71.761,108.869z
			 M-74.714,113.776l2.119-3.971l2.13,3.971H-74.714z"/>
		<path class="st0" d="M-58.112,110.97h1.212c0,0,0-0.809,0-1.258c0-0.449-0.673-0.847-1.212-0.847c-0.539,0-5.166,0-5.839,0
			c-0.674,0-0.944,0.538-0.944,1.052s0,1.907,0,2.445c0,0.539,0.674,0.808,1.259,0.808c0.584,0,5.659,0,5.659,0v2.471h-6.018v-1.393
			l-1.215,0.449c0,0,0,0.853,0,1.347c0,0.494,0.405,0.684,0.944,0.684s5.435,0,6.378,0c0.944,0,1.169-0.504,1.169-1.358
			s0-1.437,0-2.246c0-0.807-0.495-1.122-1.347-1.122c-0.854,0-5.705,0-5.705,0v-2.157h5.614L-58.112,110.97z"/>
	</g>
	<g>
		<polygon class="st0" points="-35.648,108.865 -34.409,108.865 -34.409,115.653 -28.323,115.653 -28.323,116.73 -35.648,116.73 		
			"/>
		<path class="st0" d="M-21.161,108.869h-1.633l-4.295,7.861h1.526l0.916-1.888h5.371l0.915,1.888h1.725L-21.161,108.869z
			 M-24.113,113.776l2.119-3.971l2.13,3.971H-24.113z"/>
		<path class="st0" d="M12.139,108.869h-1.632l-4.296,7.861h1.528l0.915-1.888h5.372l0.915,1.888h1.725L12.139,108.869z
			 M9.186,113.776l2.118-3.971l2.131,3.971H9.186z"/>
		<path class="st0" d="M25.754,110.97h1.212c0,0,0-0.809,0-1.258c0-0.449-0.673-0.847-1.212-0.847c-0.539,0-5.166,0-5.839,0
			c-0.674,0-0.944,0.538-0.944,1.052s0,1.907,0,2.445c0,0.539,0.674,0.808,1.259,0.808c0.585,0,5.659,0,5.659,0v2.471h-6.017v-1.393
			l-1.215,0.449c0,0,0,0.853,0,1.347c0,0.494,0.405,0.684,0.944,0.684c0.54,0,5.434,0,6.378,0c0.944,0,1.17-0.504,1.17-1.358
			s0-1.437,0-2.246c0-0.807-0.495-1.122-1.347-1.122c-0.853,0-5.706,0-5.706,0v-2.157h5.615L25.754,110.97z"/>
		<polygon class="st0" points="-14.397,116.73 -14.397,108.723 -13.383,108.723 -6.678,114.993 -6.678,108.723 -5.52,108.723 
			-5.52,116.73 -6.533,116.73 -13.239,110.507 -13.239,116.73 		"/>
		<path class="st0" d="M-40.082,108.752c-0.788,0-7.039,0-7.039,0v7.978h1.238v-3.173c0,0,5.245,0,5.731,0
			c0.486,0,1.03-0.208,1.03-0.822v-2.882C-39.122,109.379-39.284,108.752-40.082,108.752z M-40.314,112.145
			c0,0.277-0.139,0.474-0.486,0.474c-0.348,0-5.083,0-5.083,0v-2.906c0,0,4.399,0,4.852,0c0.451,0,0.718,0.244,0.718,0.486V112.145z
			"/>
		<polygon class="st0" points="5.504,108.741 5.504,109.898 1.591,109.898 1.591,116.73 0.434,116.73 0.434,109.898 -3.178,109.898 
			-3.178,108.741 		"/>
	</g>
</g>
<g>
	<g>
		<polygon class="st0" points="35.719,116.705 35.719,108.699 36.732,108.699 43.437,114.969 43.437,108.699 44.594,108.699 
			44.594,116.705 43.581,116.705 36.877,110.485 36.877,116.705 		"/>
		<path class="st0" d="M56.657,108.695h-6.679c-0.742,0-1.378,0.243-1.378,1.112c0,0,0,5.211,0,5.938
			c0,0.719,0.185,0.961,1.112,0.961h6.946c0.475,0,1.007-0.242,1.007-1.261v-5.638C57.665,109.031,57.711,108.695,56.657,108.695z
			 M56.461,115.641h-6.483v-5.742h6.483C56.461,109.899,56.461,115.641,56.461,115.641z"/>
	</g>
	<g>
		<polygon class="st0" points="116.349,116.705 116.349,108.699 117.362,108.699 124.067,114.969 124.067,108.699 125.225,108.699 
			125.225,116.705 124.212,116.705 117.507,110.485 117.507,116.705 		"/>
		<path class="st0" d="M86.253,108.695h-6.681c-0.74,0-1.377,0.243-1.377,1.112c0,0,0,5.211,0,5.938
			c0,0.719,0.185,0.961,1.111,0.961h6.947c0.475,0,1.007-0.242,1.007-1.261v-5.638C87.259,109.031,87.306,108.695,86.253,108.695z
			 M86.055,115.641h-6.483v-5.742h6.483V115.641z"/>
		<path class="st0" d="M73.419,113.591v2.05h-5.528v-5.742h5.528v1.714l1.205-0.331v-1.475c0-0.776,0.046-1.112-1.007-1.112h-5.726
			c-0.741,0-1.377,0.243-1.377,1.112c0,0,0,5.211,0,5.938c0,0.719,0.185,0.961,1.112,0.961h5.991c0.475,0,1.007-0.242,1.007-1.261
			v-1.523L73.419,113.591z"/>
		<polygon class="st0" points="91.412,116.708 91.412,108.682 92.537,108.682 96.383,113.689 99.914,108.682 101.314,108.682 
			101.314,116.708 99.914,116.708 99.914,110.865 96.363,115.596 92.616,110.788 92.616,116.708 		"/>
		<polygon class="st0" points="106.659,109.908 106.659,111.975 110.781,111.975 110.781,113.154 106.659,113.154 106.659,115.514 
			113.212,115.514 113.212,116.705 105.177,116.705 105.177,108.682 113.212,108.682 113.212,109.908 		"/>
		<path class="st0" d="M131.146,115.65c0,0.058,0,0.105-0.012,0.162c0,0-0.012,0.023-0.023,0.068
			c-0.022,0.118-0.069,0.233-0.138,0.337c-0.243,0.531-0.671,1.435-1.054,1.818h-0.798c0,0,0.637-0.694,0.902-1.391
			c-0.509-0.045-0.902-0.475-0.902-0.994c0-0.556,0.451-1.018,1.019-1.018C130.693,114.632,131.146,115.094,131.146,115.65z"/>
	</g>
</g>
<g>
	<g>
		<polygon class="st0" points="185.322,116.736 185.322,108.729 186.335,108.729 193.039,115 193.039,108.729 194.197,108.729 
			194.197,116.736 193.184,116.736 186.48,110.516 186.48,116.736 		"/>
		<polygon class="st0" points="175.631,109.937 175.631,112.006 179.754,112.006 179.754,113.184 175.631,113.184 175.631,115.544 
			182.184,115.544 182.184,116.736 174.149,116.736 174.149,108.712 182.184,108.712 182.184,109.937 		"/>
		<polygon class="st0" points="153.152,109.937 153.152,112.006 157.275,112.006 157.275,113.184 153.152,113.184 153.152,115.544 
			159.706,115.544 159.706,116.736 151.67,116.736 151.67,108.712 159.706,108.712 159.706,109.937 		"/>
		<path class="st0" d="M147.96,111.637v-1.68c0-0.683-0.197-1.214-0.961-1.214c-0.763,0-7.271,0-7.271,0v7.963c0,0,6.102,0,6.797,0
			c0.705,0,1.435-0.694,1.435-1.157v-1.701c0-1.101-1.216-1.343-1.216-1.343C147.184,112.506,147.96,112.087,147.96,111.637z
			 M140.979,109.727c0,0,4.643,0,5.083,0c0.429,0,0.486,0.208,0.486,0.463v1.448c0,0.324-0.267,0.486-0.544,0.486
			c-0.267,0-5.026,0-5.026,0V109.727z M146.651,115.156c0,0.382-0.394,0.568-0.671,0.568s-5.002,0-5.002,0v-2.779
			c0,0,4.62,0,5.059,0c0.441,0,0.614,0.244,0.614,0.544L146.651,115.156L146.651,115.156z"/>
		<path class="st0" d="M170.844,111.637v-1.68c0-0.683-0.197-1.214-0.961-1.214c-0.763,0-7.27,0-7.27,0v7.963c0,0,6.101,0,6.796,0
			c0.706,0,1.435-0.694,1.435-1.157v-1.701c0-1.101-1.216-1.343-1.216-1.343C170.068,112.506,170.844,112.087,170.844,111.637z
			 M163.864,109.727c0,0,4.642,0,5.082,0c0.429,0,0.486,0.208,0.486,0.463v1.448c0,0.324-0.267,0.486-0.544,0.486
			c-0.267,0-5.024,0-5.024,0V109.727z M169.536,115.156c0,0.382-0.394,0.568-0.672,0.568s-5.001,0-5.001,0v-2.779
			c0,0,4.618,0,5.058,0c0.441,0,0.614,0.244,0.614,0.544V115.156z"/>
		<circle class="st0" cx="199.187" cy="115.726" r="0.887"/>
	</g>
	<g>
		<polygon class="st0" points="202.191,121.039 202.191,116.997 202.758,116.997 204.695,119.52 206.474,116.997 207.179,116.997 
			207.179,121.039 206.474,121.039 206.474,118.098 204.685,120.481 202.798,118.056 202.798,121.039 		"/>
		<path class="st0" d="M212.086,119.429c0,0,0.705,0,0.902,0c0.197,0,0.51-0.29,0.51-0.613c0-0.324-0.034-1.296-0.034-1.448
			c0-0.138-0.035-0.371-0.601-0.371c-0.556,0-3.694,0-3.694,0v4.041h0.729v-1.563h1.251l1.458,1.563h1.147L212.086,119.429z
			 M209.932,118.91v-1.389c0,0,2.281,0,2.57,0s0.302,0.462,0.302,0.776c0,0.3-0.034,0.613-0.266,0.613
			C212.305,118.91,209.932,118.91,209.932,118.91z"/>
	</g>
</g>
</svg>
