<?xml version="1.0" encoding="utf-8"?>
<!-- Generator: Adobe Illustrator 17.0.0, SVG Export Plug-In . SVG Version: 6.00 Build 0)  -->
<!DOCTYPE svg PUBLIC "-//W3C//DTD SVG 1.1//EN" "http://www.w3.org/Graphics/SVG/1.1/DTD/svg11.dtd">
<svg version="1.1" id="Layer_1" xmlns="http://www.w3.org/2000/svg" xmlns:xlink="http://www.w3.org/1999/xlink" x="0px" y="0px"
	 width="209.867px" height="52.667px" viewBox="0 0 209.867 52.667" enable-background="new 0 0 209.867 52.667"
	 xml:space="preserve">
<path fill="#8EC44B" d="M21.976,8.997c3.136-3.194,2.671-7.656,2.65-7.844L24.495,0l-1.259,0.2
	c-10.863,1.722-11.05,9.767-11.047,10.383v3.349c-0.182-0.245-0.385-0.477-0.611-0.697c-2.269-2.213-5.916-2.353-6.072-2.358
	l-1.089-0.034l0.14,0.98c0.9,6.391,5.645,6.888,7.078,6.888c0.219,0,0.405-0.01,0.554-0.021v13.433l7.088,15.298l0.012,0.024
	c0.225,0.452-0.038,0.75-0.195,0.874l-0.072,0.057c-2.623,2.201-7.018,2.239-9.405,2.064c-3.677-0.268-6.4-1.211-6.851-1.537
	c-0.562-0.581-0.357-1.512-0.309-1.695C5.709,39.802,9.363,32.423,9.4,32.349l0.104-0.211v-5.941c0-0.597-0.533-1.081-1.191-1.081
	c-0.656,0-1.19,0.484-1.19,1.081v5.479c-0.626,1.271-3.936,8.028-6.907,14.795l-0.034,0.095c-0.273,0.833-0.403,2.573,0.84,3.81
	c1.046,1.041,5.504,2.124,9.353,2.272c0.322,0.012,0.655,0.021,1,0.021c2.947,0,6.637-0.521,9.236-2.682
	c0.664-0.501,1.644-1.807,0.856-3.414l-6.896-14.884V12.012C17.734,11.793,20.223,10.781,21.976,8.997 M22.259,2.601
	c-0.089,1.294-0.497,3.366-2.062,4.96c-1.286,1.309-3.159,2.074-5.58,2.281C14.832,8.178,16.001,4.095,22.259,2.601 M6.601,12.696
	c1.666,0.306,4.55,1.278,4.841,4.333C9.894,16.978,7.49,16.286,6.601,12.696"/>
<path fill="#B3B3B3" d="M35.229,41.352c0,0.218-0.055,0.453-0.16,0.707c-0.108,0.252-0.277,0.5-0.505,0.744
	c-0.23,0.242-0.524,0.441-0.879,0.592c-0.358,0.154-0.774,0.229-1.248,0.229c-0.36,0-0.688-0.033-0.982-0.102
	c-0.296-0.067-0.563-0.174-0.803-0.319c-0.241-0.144-0.462-0.333-0.663-0.569c-0.18-0.215-0.333-0.453-0.46-0.719
	c-0.129-0.266-0.223-0.549-0.287-0.85c-0.064-0.301-0.095-0.62-0.095-0.959c0-0.549,0.079-1.039,0.239-1.476
	c0.161-0.434,0.389-0.805,0.688-1.112c0.299-0.311,0.647-0.545,1.047-0.707c0.399-0.159,0.826-0.24,1.28-0.24
	c0.551,0,1.043,0.109,1.475,0.329s0.761,0.493,0.991,0.817c0.23,0.323,0.344,0.629,0.344,0.918c0,0.158-0.056,0.299-0.167,0.418
	c-0.112,0.123-0.247,0.183-0.405,0.183c-0.177,0-0.309-0.042-0.398-0.124c-0.089-0.086-0.188-0.229-0.296-0.434
	c-0.179-0.338-0.391-0.592-0.635-0.76c-0.244-0.167-0.544-0.251-0.9-0.251c-0.569,0-1.019,0.216-1.357,0.647
	c-0.336,0.432-0.505,1.044-0.505,1.838c0,0.529,0.075,0.972,0.224,1.322c0.149,0.354,0.359,0.617,0.632,0.791s0.593,0.26,0.96,0.26
	c0.397,0,0.732-0.098,1.006-0.295c0.275-0.196,0.483-0.486,0.621-0.867c0.06-0.18,0.133-0.327,0.219-0.441
	c0.087-0.111,0.227-0.17,0.42-0.17c0.163,0,0.305,0.059,0.423,0.174C35.169,41.04,35.229,41.184,35.229,41.352"/>
<path fill="#B3B3B3" d="M41.674,37.407v1.955h2.983v-1.955c0-0.278,0.064-0.487,0.188-0.627c0.126-0.141,0.292-0.209,0.496-0.209
	c0.208,0,0.376,0.067,0.504,0.205c0.129,0.139,0.194,0.348,0.194,0.631v5.375c0,0.282-0.065,0.494-0.197,0.633
	c-0.129,0.14-0.296,0.209-0.501,0.209c-0.209,0-0.374-0.069-0.498-0.211c-0.126-0.142-0.186-0.353-0.186-0.631v-2.293h-2.983v2.293
	c0,0.282-0.066,0.494-0.196,0.633c-0.129,0.14-0.297,0.209-0.501,0.209c-0.21,0-0.375-0.069-0.499-0.211s-0.186-0.353-0.186-0.631
	v-5.375c0-0.278,0.061-0.487,0.184-0.627c0.123-0.141,0.288-0.209,0.501-0.209c0.206,0,0.375,0.067,0.505,0.205
	C41.61,36.915,41.674,37.124,41.674,37.407"/>
<path fill="#B3B3B3" d="M55.831,37.751h-3.114v1.675h2.868c0.211,0,0.369,0.047,0.472,0.143c0.104,0.095,0.156,0.219,0.156,0.375
	c0,0.154-0.051,0.281-0.153,0.379c-0.104,0.097-0.26,0.146-0.475,0.146h-2.868v1.941h3.222c0.216,0,0.38,0.05,0.491,0.15
	c0.109,0.101,0.165,0.234,0.165,0.402c0,0.161-0.056,0.293-0.165,0.393c-0.111,0.102-0.275,0.151-0.491,0.151h-3.755
	c-0.302,0-0.519-0.067-0.649-0.2c-0.133-0.133-0.199-0.348-0.199-0.646v-5.128c0-0.199,0.03-0.361,0.088-0.487
	c0.06-0.125,0.152-0.216,0.277-0.273c0.126-0.059,0.286-0.086,0.483-0.086h3.647c0.221,0,0.384,0.047,0.49,0.146
	c0.109,0.098,0.162,0.227,0.162,0.385c0,0.16-0.053,0.29-0.162,0.389C56.214,37.703,56.052,37.751,55.831,37.751"/>
<path fill="#B3B3B3" d="M63.809,42.479l-1.094-4.345v4.709c0,0.261-0.058,0.454-0.175,0.587c-0.116,0.129-0.271,0.193-0.463,0.193
	c-0.186,0-0.338-0.063-0.456-0.192c-0.118-0.128-0.177-0.325-0.177-0.588v-5.398c0-0.299,0.077-0.5,0.233-0.604
	c0.155-0.104,0.365-0.156,0.629-0.156h0.427c0.258,0,0.445,0.024,0.561,0.071s0.203,0.131,0.259,0.25
	c0.055,0.121,0.118,0.318,0.189,0.593l0.992,3.735l0.991-3.735c0.072-0.274,0.135-0.472,0.191-0.593
	c0.056-0.119,0.142-0.203,0.258-0.25c0.117-0.047,0.304-0.071,0.561-0.071h0.428c0.264,0,0.474,0.052,0.628,0.156
	c0.155,0.104,0.233,0.305,0.233,0.604v5.398c0,0.261-0.058,0.454-0.175,0.587c-0.116,0.129-0.271,0.193-0.467,0.193
	c-0.184,0-0.334-0.064-0.45-0.193c-0.119-0.133-0.177-0.326-0.177-0.587v-4.709l-1.094,4.345c-0.072,0.282-0.13,0.49-0.175,0.621
	c-0.045,0.133-0.127,0.254-0.249,0.361c-0.121,0.108-0.288,0.162-0.503,0.162c-0.161,0-0.298-0.035-0.409-0.104
	c-0.112-0.07-0.199-0.159-0.261-0.268c-0.063-0.109-0.112-0.23-0.146-0.36C63.881,42.759,63.847,42.624,63.809,42.479"/>
<path fill="#B3B3B3" d="M73.312,42.782v-5.375c0-0.279,0.063-0.486,0.19-0.627s0.292-0.209,0.493-0.209
	c0.208,0,0.377,0.068,0.505,0.206c0.129,0.138,0.195,0.349,0.195,0.63v5.375c0,0.283-0.066,0.493-0.195,0.635
	c-0.128,0.139-0.297,0.207-0.505,0.207c-0.198,0-0.362-0.068-0.489-0.211C73.375,43.272,73.312,43.061,73.312,42.782"/>
<path fill="#B3B3B3" d="M85.862,41.352c0,0.218-0.054,0.453-0.16,0.707c-0.108,0.252-0.275,0.5-0.505,0.744
	c-0.231,0.242-0.523,0.441-0.879,0.592c-0.357,0.154-0.774,0.229-1.248,0.229c-0.36,0-0.687-0.033-0.982-0.102
	c-0.294-0.067-0.562-0.174-0.803-0.319c-0.239-0.144-0.461-0.333-0.663-0.569c-0.179-0.215-0.334-0.453-0.461-0.719
	c-0.126-0.266-0.222-0.549-0.286-0.85c-0.063-0.301-0.096-0.62-0.096-0.959c0-0.549,0.08-1.039,0.241-1.476
	c0.159-0.434,0.388-0.805,0.686-1.112c0.297-0.311,0.648-0.545,1.048-0.707c0.4-0.159,0.826-0.24,1.279-0.24
	c0.552,0,1.044,0.109,1.475,0.329s0.761,0.493,0.991,0.817c0.23,0.323,0.344,0.629,0.344,0.918c0,0.158-0.054,0.299-0.167,0.418
	c-0.111,0.123-0.246,0.183-0.405,0.183c-0.176,0-0.31-0.042-0.398-0.124c-0.087-0.086-0.188-0.229-0.296-0.434
	c-0.179-0.338-0.391-0.592-0.634-0.76c-0.244-0.167-0.544-0.251-0.901-0.251c-0.568,0-1.021,0.216-1.356,0.647
	c-0.337,0.432-0.505,1.044-0.505,1.838c0,0.529,0.075,0.972,0.224,1.322c0.149,0.354,0.359,0.617,0.631,0.791
	c0.273,0.174,0.593,0.26,0.96,0.26c0.396,0,0.732-0.098,1.007-0.295c0.275-0.196,0.482-0.486,0.621-0.867
	c0.058-0.18,0.133-0.327,0.218-0.441c0.087-0.111,0.228-0.17,0.42-0.17c0.165,0,0.306,0.059,0.424,0.174
	C85.803,41.04,85.862,41.184,85.862,41.352"/>
<path fill="#B3B3B3" d="M95.282,42.735l-0.325-0.855h-2.773l-0.327,0.875c-0.126,0.34-0.236,0.57-0.326,0.691
	c-0.089,0.119-0.237,0.179-0.441,0.179c-0.174,0-0.329-0.065-0.461-0.19c-0.134-0.128-0.201-0.271-0.201-0.433
	c0-0.095,0.016-0.19,0.047-0.289c0.03-0.101,0.083-0.238,0.154-0.413l1.744-4.432c0.05-0.127,0.11-0.28,0.179-0.459
	c0.07-0.178,0.145-0.325,0.223-0.442c0.081-0.12,0.185-0.214,0.313-0.286c0.128-0.074,0.287-0.109,0.477-0.109
	c0.192,0,0.353,0.035,0.482,0.109c0.129,0.072,0.232,0.165,0.31,0.28c0.081,0.114,0.147,0.237,0.2,0.37
	c0.055,0.132,0.125,0.308,0.209,0.527l1.781,4.403c0.14,0.334,0.21,0.579,0.21,0.729c0,0.158-0.066,0.305-0.198,0.436
	c-0.132,0.132-0.291,0.198-0.478,0.198c-0.106,0-0.2-0.021-0.278-0.058c-0.078-0.039-0.143-0.093-0.195-0.16
	c-0.053-0.065-0.11-0.168-0.169-0.307C95.377,42.962,95.325,42.841,95.282,42.735 M92.545,40.841h2.039l-1.028-2.815L92.545,40.841z
	"/>
<path fill="#B3B3B3" d="M102.938,37.407v4.965h2.8c0.224,0,0.395,0.055,0.516,0.162c0.119,0.111,0.179,0.248,0.179,0.41
	c0,0.168-0.06,0.303-0.177,0.407s-0.291,0.156-0.518,0.156h-3.336c-0.301,0-0.517-0.065-0.649-0.2
	c-0.131-0.132-0.198-0.348-0.198-0.646v-5.254c0-0.278,0.064-0.487,0.19-0.627c0.125-0.141,0.291-0.209,0.494-0.209
	c0.208,0,0.377,0.067,0.505,0.205C102.874,36.915,102.938,37.124,102.938,37.407"/>
<path fill="#B3B3B3" d="M117.404,42.782v-5.375c0-0.279,0.063-0.486,0.189-0.627c0.129-0.141,0.292-0.209,0.495-0.209
	c0.208,0,0.375,0.068,0.505,0.206c0.127,0.138,0.192,0.349,0.192,0.63v5.375c0,0.283-0.065,0.493-0.192,0.635
	c-0.13,0.139-0.297,0.207-0.505,0.207c-0.199,0-0.362-0.068-0.491-0.211C117.467,43.272,117.404,43.061,117.404,42.782"/>
<path fill="#B3B3B3" d="M125.944,37.398l2.656,4.021V37.36c0-0.262,0.057-0.461,0.171-0.592c0.111-0.132,0.266-0.198,0.458-0.198
	c0.198,0,0.354,0.066,0.469,0.198c0.116,0.131,0.174,0.33,0.174,0.592v5.367c0,0.598-0.248,0.896-0.746,0.896
	c-0.124,0-0.235-0.018-0.333-0.053c-0.1-0.035-0.193-0.091-0.278-0.169c-0.091-0.077-0.169-0.169-0.245-0.274
	c-0.074-0.103-0.147-0.209-0.223-0.317l-2.591-3.974v3.996c0,0.262-0.061,0.459-0.183,0.592c-0.121,0.133-0.274,0.199-0.464,0.199
	c-0.196,0-0.353-0.066-0.471-0.201s-0.176-0.332-0.176-0.59V37.57c0-0.223,0.024-0.399,0.074-0.526
	c0.058-0.139,0.155-0.252,0.292-0.34c0.137-0.09,0.283-0.134,0.441-0.134c0.125,0,0.231,0.019,0.319,0.06
	c0.089,0.041,0.166,0.096,0.231,0.164c0.068,0.067,0.137,0.156,0.205,0.265C125.797,37.168,125.87,37.28,125.944,37.398"/>
<path fill="#B3B3B3" d="M136.052,36.685h1.8c0.47,0,0.871,0.045,1.206,0.131c0.336,0.089,0.639,0.251,0.912,0.489
	c0.709,0.607,1.065,1.533,1.065,2.773c0,0.409-0.036,0.782-0.108,1.12c-0.071,0.339-0.18,0.644-0.33,0.915
	c-0.148,0.271-0.339,0.514-0.57,0.729c-0.186,0.166-0.385,0.297-0.602,0.396c-0.217,0.101-0.451,0.169-0.7,0.209
	c-0.25,0.041-0.532,0.062-0.845,0.062h-1.801c-0.252,0-0.441-0.039-0.567-0.114c-0.127-0.075-0.209-0.183-0.249-0.322
	c-0.039-0.138-0.058-0.315-0.058-0.537v-5.003c0-0.297,0.066-0.513,0.201-0.645C135.537,36.752,135.754,36.685,136.052,36.685
	 M136.585,37.78v4.63h1.048c0.23,0,0.41-0.007,0.54-0.019c0.131-0.012,0.266-0.043,0.405-0.092c0.14-0.052,0.261-0.121,0.364-0.211
	c0.459-0.391,0.693-1.062,0.693-2.019c0-0.674-0.104-1.178-0.306-1.513c-0.203-0.336-0.454-0.549-0.752-0.641
	c-0.298-0.091-0.659-0.137-1.079-0.137h-0.913V37.78z"/>
<path fill="#B3B3B3" d="M146.072,40.688v-3.28c0-0.28,0.062-0.488,0.189-0.628c0.123-0.141,0.289-0.209,0.494-0.209
	c0.215,0,0.385,0.068,0.51,0.209c0.126,0.14,0.188,0.348,0.188,0.628v3.354c0,0.381,0.044,0.7,0.128,0.955
	c0.085,0.258,0.239,0.455,0.455,0.596c0.216,0.143,0.521,0.213,0.912,0.213c0.539,0,0.921-0.144,1.144-0.432
	c0.225-0.285,0.336-0.721,0.336-1.304v-3.383c0-0.283,0.062-0.493,0.186-0.632c0.125-0.137,0.292-0.205,0.5-0.205
	c0.206,0,0.376,0.068,0.504,0.205c0.127,0.139,0.193,0.349,0.193,0.632v3.28c0,0.533-0.053,0.979-0.156,1.334
	c-0.104,0.357-0.301,0.672-0.589,0.941c-0.248,0.229-0.536,0.398-0.866,0.503c-0.328,0.105-0.713,0.158-1.153,0.158
	c-0.523,0-0.976-0.058-1.354-0.17c-0.379-0.113-0.687-0.288-0.926-0.524c-0.238-0.238-0.415-0.543-0.526-0.914
	S146.072,41.203,146.072,40.688"/>
<path fill="#B3B3B3" d="M162.3,41.461c0,0.412-0.107,0.782-0.321,1.111c-0.211,0.328-0.522,0.587-0.933,0.771
	c-0.408,0.188-0.895,0.28-1.455,0.28c-0.674,0-1.229-0.128-1.667-0.381c-0.31-0.185-0.562-0.429-0.756-0.733
	c-0.192-0.308-0.29-0.604-0.29-0.891c0-0.168,0.059-0.312,0.174-0.432c0.116-0.119,0.265-0.18,0.445-0.18
	c0.146,0,0.268,0.047,0.367,0.141c0.102,0.092,0.188,0.23,0.261,0.414c0.087,0.217,0.181,0.398,0.28,0.545
	c0.102,0.146,0.242,0.266,0.427,0.36s0.422,0.142,0.721,0.142c0.41,0,0.742-0.096,0.999-0.287c0.256-0.189,0.385-0.428,0.385-0.715
	c0-0.227-0.068-0.408-0.209-0.551c-0.138-0.14-0.315-0.248-0.535-0.324c-0.218-0.073-0.511-0.152-0.877-0.235
	c-0.49-0.116-0.9-0.25-1.23-0.404c-0.33-0.153-0.593-0.362-0.787-0.627s-0.29-0.595-0.29-0.987c0-0.377,0.102-0.711,0.305-1
	c0.207-0.293,0.504-0.518,0.892-0.675c0.387-0.155,0.843-0.233,1.367-0.233c0.418,0,0.781,0.052,1.087,0.154
	c0.306,0.104,0.559,0.242,0.762,0.414c0.201,0.174,0.348,0.354,0.44,0.542c0.094,0.189,0.141,0.375,0.141,0.554
	c0,0.164-0.058,0.313-0.176,0.444c-0.117,0.134-0.26,0.198-0.434,0.198c-0.157,0-0.279-0.04-0.361-0.119
	c-0.081-0.079-0.172-0.208-0.266-0.388c-0.127-0.257-0.275-0.458-0.449-0.603c-0.173-0.144-0.453-0.217-0.837-0.217
	c-0.356,0-0.645,0.078-0.862,0.235c-0.22,0.157-0.33,0.345-0.33,0.565c0,0.135,0.04,0.254,0.113,0.354
	c0.074,0.099,0.177,0.184,0.306,0.256c0.131,0.07,0.264,0.128,0.396,0.167c0.135,0.041,0.354,0.099,0.662,0.178
	c0.385,0.091,0.732,0.189,1.045,0.298c0.312,0.107,0.576,0.239,0.795,0.396c0.219,0.155,0.391,0.351,0.51,0.588
	C162.237,40.827,162.3,41.114,162.3,41.461"/>
<path fill="#B3B3B3" d="M171.714,37.827h-1.507v4.955c0,0.285-0.064,0.498-0.191,0.635c-0.128,0.139-0.292,0.207-0.491,0.207
	c-0.207,0-0.375-0.068-0.503-0.209c-0.129-0.139-0.194-0.351-0.194-0.633v-4.955h-1.506c-0.236,0-0.411-0.054-0.526-0.156
	c-0.116-0.105-0.172-0.24-0.172-0.412c0-0.178,0.06-0.316,0.18-0.419c0.119-0.103,0.29-0.154,0.519-0.154h4.393
	c0.239,0,0.415,0.054,0.532,0.159c0.115,0.105,0.175,0.244,0.175,0.414c0,0.172-0.06,0.307-0.176,0.412
	C172.126,37.773,171.95,37.827,171.714,37.827"/>
<path fill="#B3B3B3" d="M178.91,40.59h-0.485v2.191c0,0.289-0.063,0.501-0.19,0.637c-0.126,0.139-0.293,0.205-0.498,0.205
	c-0.22,0-0.391-0.07-0.511-0.213c-0.119-0.145-0.182-0.354-0.182-0.629v-5.249c0-0.298,0.066-0.515,0.2-0.646
	c0.133-0.135,0.347-0.203,0.647-0.203h2.247c0.311,0,0.576,0.016,0.796,0.041c0.221,0.026,0.417,0.08,0.595,0.162
	c0.213,0.088,0.403,0.217,0.568,0.385c0.164,0.168,0.291,0.361,0.375,0.584c0.085,0.222,0.128,0.457,0.128,0.705
	c0,0.51-0.146,0.914-0.432,1.221c-0.286,0.303-0.722,0.52-1.304,0.646c0.243,0.129,0.479,0.322,0.703,0.576
	c0.222,0.256,0.42,0.525,0.596,0.811c0.176,0.289,0.312,0.547,0.41,0.779c0.098,0.23,0.146,0.39,0.146,0.477
	c0,0.09-0.027,0.179-0.087,0.27c-0.056,0.086-0.136,0.155-0.234,0.207c-0.1,0.053-0.214,0.076-0.343,0.076
	c-0.155,0-0.286-0.036-0.392-0.107c-0.105-0.073-0.196-0.166-0.273-0.277c-0.074-0.112-0.178-0.277-0.309-0.493l-0.555-0.922
	c-0.197-0.338-0.376-0.597-0.533-0.772c-0.155-0.178-0.315-0.299-0.478-0.363C179.357,40.623,179.155,40.59,178.91,40.59
	 M179.7,37.725h-1.275V39.6h1.239c0.331,0,0.61-0.029,0.836-0.086c0.227-0.059,0.401-0.156,0.52-0.295
	c0.119-0.137,0.179-0.328,0.179-0.568c0-0.191-0.047-0.357-0.145-0.501c-0.095-0.146-0.228-0.253-0.398-0.323
	C180.493,37.758,180.173,37.725,179.7,37.725"/>
<path fill="#B3B3B3" d="M187.774,42.782v-5.375c0-0.279,0.063-0.486,0.19-0.627c0.129-0.141,0.292-0.209,0.493-0.209
	c0.208,0,0.378,0.068,0.505,0.206c0.13,0.138,0.194,0.349,0.194,0.63v5.375c0,0.283-0.064,0.493-0.194,0.635
	c-0.127,0.139-0.297,0.207-0.505,0.207c-0.196,0-0.36-0.068-0.488-0.211C187.837,43.272,187.774,43.061,187.774,42.782"/>
<path fill="#B3B3B3" d="M199.009,37.751h-3.113v1.675h2.865c0.213,0,0.37,0.047,0.475,0.143c0.104,0.095,0.155,0.219,0.155,0.375
	c0,0.154-0.051,0.281-0.154,0.379c-0.103,0.097-0.261,0.146-0.476,0.146h-2.865v1.941h3.219c0.22,0,0.383,0.05,0.492,0.15
	s0.166,0.234,0.166,0.402c0,0.161-0.057,0.293-0.166,0.393c-0.109,0.102-0.272,0.151-0.492,0.151h-3.754
	c-0.302,0-0.517-0.067-0.647-0.2c-0.134-0.133-0.2-0.348-0.2-0.646v-5.128c0-0.199,0.031-0.361,0.089-0.487
	c0.06-0.125,0.151-0.216,0.278-0.273c0.124-0.059,0.285-0.086,0.48-0.086h3.648c0.22,0,0.384,0.047,0.49,0.146
	c0.107,0.098,0.163,0.227,0.163,0.385c0,0.16-0.056,0.29-0.163,0.389C199.393,37.703,199.229,37.751,199.009,37.751"/>
<path fill="#B3B3B3" d="M209.867,41.461c0,0.412-0.107,0.782-0.318,1.111c-0.213,0.328-0.523,0.587-0.932,0.771
	c-0.411,0.188-0.897,0.28-1.459,0.28c-0.673,0-1.229-0.128-1.665-0.381c-0.312-0.185-0.563-0.429-0.755-0.733
	c-0.194-0.308-0.292-0.604-0.292-0.891c0-0.168,0.058-0.312,0.175-0.432s0.263-0.18,0.444-0.18c0.145,0,0.269,0.047,0.369,0.141
	c0.101,0.092,0.187,0.23,0.258,0.414c0.087,0.217,0.181,0.398,0.283,0.545c0.101,0.146,0.242,0.266,0.426,0.36
	c0.181,0.095,0.424,0.142,0.72,0.142c0.409,0,0.743-0.096,0.998-0.287c0.257-0.189,0.385-0.428,0.385-0.715
	c0-0.227-0.07-0.408-0.209-0.551c-0.137-0.14-0.314-0.248-0.534-0.324c-0.219-0.073-0.51-0.152-0.876-0.235
	c-0.489-0.116-0.901-0.25-1.23-0.404c-0.332-0.153-0.593-0.362-0.787-0.627s-0.291-0.595-0.291-0.987c0-0.377,0.103-0.711,0.308-1
	c0.203-0.293,0.502-0.518,0.887-0.675c0.39-0.155,0.844-0.233,1.368-0.233c0.421,0,0.784,0.052,1.087,0.154
	c0.308,0.104,0.56,0.242,0.763,0.414c0.201,0.174,0.35,0.354,0.441,0.542c0.094,0.189,0.14,0.375,0.14,0.554
	c0,0.164-0.058,0.313-0.174,0.444c-0.118,0.134-0.263,0.198-0.438,0.198c-0.155,0-0.278-0.04-0.358-0.119
	c-0.082-0.079-0.172-0.208-0.268-0.388c-0.125-0.257-0.272-0.458-0.447-0.603c-0.172-0.144-0.455-0.217-0.837-0.217
	c-0.356,0-0.645,0.078-0.864,0.235s-0.328,0.345-0.328,0.565c0,0.135,0.038,0.254,0.113,0.354c0.074,0.099,0.176,0.184,0.305,0.256
	c0.13,0.07,0.263,0.128,0.398,0.167c0.132,0.041,0.35,0.099,0.658,0.178c0.386,0.091,0.733,0.189,1.046,0.298
	c0.312,0.107,0.576,0.239,0.796,0.396c0.219,0.155,0.391,0.351,0.512,0.588C209.806,40.827,209.867,41.114,209.867,41.461"/>
<path fill="#FFFFFF" d="M67.191,12.259H52.306h-1.448c-0.29,0-0.524,0.234-0.524,0.522v1.45v5.995v1.448v5.993v1.448
	c0,0.29,0.234,0.524,0.524,0.524h1.448h14.885c0.29,0,0.525-0.234,0.525-0.524v-1.448c0-0.287-0.235-0.522-0.525-0.522H52.83v-4.947
	h14.361c0.29,0,0.525-0.234,0.525-0.523v-1.448c0-0.291-0.235-0.525-0.525-0.525H52.83v-4.946h14.361
	c0.29,0,0.525-0.234,0.525-0.524v-1.45C67.716,12.493,67.481,12.259,67.191,12.259"/>
<path fill="#FFFFFF" d="M187.856,12.259h-14.887h-1.447c-0.29,0-0.524,0.234-0.524,0.522v1.45v5.995v1.448v5.993v1.448
	c0,0.29,0.234,0.524,0.524,0.524h1.447h14.887c0.288,0,0.523-0.234,0.523-0.524v-1.448c0-0.287-0.235-0.522-0.523-0.522h-14.361
	v-4.947h14.361c0.288,0,0.523-0.234,0.523-0.523v-1.448c0-0.291-0.235-0.525-0.523-0.525h-14.361v-4.946h14.361
	c0.288,0,0.523-0.234,0.523-0.524v-1.45C188.379,12.493,188.144,12.259,187.856,12.259"/>
<path fill="#FFFFFF" d="M103.274,12.259h-1.449c-0.29,0-0.524,0.234-0.524,0.522v14.363h-8.674l-4.594-4.595
	c-0.184-0.185-0.469-0.202-0.675-0.055c-0.031,0.02-0.06,0.044-0.087,0.069l-4.58,4.581h-8.664V12.781
	c0-0.288-0.235-0.522-0.525-0.522h-1.448c-0.289,0-0.524,0.234-0.524,0.522v14.886v1.448c0,0.29,0.235,0.524,0.524,0.524h1.448
	h9.939c0.021,0.005,0.042,0.005,0.064,0.005c0.071,0,0.141-0.013,0.205-0.041c0.085-0.035,0.16-0.093,0.216-0.163l3.733-3.733
	l3.783,3.783c0.103,0.103,0.237,0.154,0.372,0.154c0.013,0,0.028-0.003,0.043-0.005h9.968h1.449c0.288,0,0.524-0.234,0.524-0.524
	v-1.448V12.781C103.798,12.493,103.562,12.259,103.274,12.259"/>
<path fill="#FFFFFF" d="M124.638,19.081c0.043-0.077,0.066-0.164,0.066-0.253c0-0.026-0.003-0.054-0.008-0.081v-4.516v-1.45
	c0-0.288-0.236-0.522-0.523-0.522h-1.449h-13.439h-1.447c-0.289,0-0.523,0.234-0.523,0.522v1.45v13.436v1.449
	c0,0.289,0.234,0.524,0.523,0.524h1.447h13.439h1.449c0.287,0,0.523-0.235,0.523-0.524v-1.449v-4.608
	c0-0.189-0.102-0.354-0.247-0.447l-1.657-1.655l1.705-1.704C124.554,19.206,124.603,19.148,124.638,19.081 M122.201,18.018
	l-2.565,2.564c-0.185,0.185-0.2,0.47-0.057,0.673c0.019,0.032,0.045,0.062,0.071,0.089l2.551,2.55v3.25H109.81V14.755h12.391V18.018
	z"/>
<path fill="#FFFFFF" d="M209.423,22.611l-1.654-1.655l1.704-1.704c0.055-0.045,0.104-0.103,0.139-0.17
	c0.044-0.078,0.067-0.164,0.067-0.254c0-0.026-0.001-0.053-0.007-0.081v-4.516v-1.45c0-0.288-0.233-0.522-0.523-0.522h-1.45h-13.437
	h-1.448c-0.291,0-0.523,0.234-0.523,0.522v1.45v14.884c0,0.29,0.232,0.525,0.523,0.525h1.448c0.29,0,0.524-0.235,0.524-0.525v-14.36
	h12.39v3.263l-2.567,2.565c-0.182,0.184-0.201,0.469-0.054,0.673c0.019,0.031,0.044,0.061,0.071,0.088l2.55,2.55v5.221
	c0,0.29,0.234,0.525,0.522,0.525h1.45c0.29,0,0.523-0.235,0.523-0.525v-6.057C209.672,22.867,209.572,22.704,209.423,22.611"/>
<path fill="#FFFFFF" d="M166.739,12.259h-1.448c-0.288,0-0.523,0.234-0.523,0.522v14.363h-12.389V12.781
	c0-0.288-0.234-0.522-0.523-0.522h-1.45c-0.289,0-0.522,0.234-0.522,0.522v14.886v1.448c0,0.29,0.233,0.524,0.522,0.524h1.45h13.436
	h1.448c0.291,0,0.524-0.234,0.524-0.524v-1.448V12.781C167.263,12.493,167.03,12.259,166.739,12.259"/>
<path fill="#FFFFFF" d="M145.346,12.258h-1.45H130.46h-1.451c-0.286,0-0.521,0.235-0.521,0.523v1.449v5.577v1.448v7.86
	c0,0.289,0.235,0.523,0.521,0.523h1.451c0.29,0,0.523-0.234,0.523-0.523v-7.336h12.39v7.336c0,0.289,0.233,0.523,0.522,0.523h1.45
	c0.289,0,0.524-0.234,0.524-0.523v-7.86v-1.448V14.23v-1.449C145.871,12.494,145.635,12.258,145.346,12.258 M143.374,19.283h-12.39
	v-4.528h12.39V19.283z"/>
<path fill="#FFFFFF" d="M46.339,12.023h-1.474c-0.289,0-0.523,0.234-0.523,0.523v13.118L31.714,12.412
	c-0.057-0.224-0.262-0.389-0.505-0.389h-1.473c-0.289,0-0.523,0.234-0.523,0.523v16.607c0,0.29,0.234,0.523,0.523,0.523h1.473
	c0.289,0,0.525-0.233,0.525-0.523V16.098l12.585,13.206c0.02,0.022,0.043,0.042,0.068,0.062c0.08,0.184,0.265,0.311,0.478,0.311
	h1.474c0.289,0,0.523-0.233,0.523-0.523V12.546C46.862,12.257,46.628,12.023,46.339,12.023"/>
</svg>
