<?xml version="1.0" encoding="utf-8"?>
<!-- Generator: Adobe Illustrator 17.0.0, SVG Export Plug-In . SVG Version: 6.00 Build 0)  -->
<!DOCTYPE svg PUBLIC "-//W3C//DTD SVG 1.1//EN" "http://www.w3.org/Graphics/SVG/1.1/DTD/svg11.dtd">
<svg version="1.1" id="Layer_1" xmlns="http://www.w3.org/2000/svg" xmlns:xlink="http://www.w3.org/1999/xlink" x="0px" y="0px"
	 width="572px" height="289px" viewBox="-223 -50.5 572 289" enable-background="new -223 -50.5 572 289" xml:space="preserve">
<path fill="#8EC44B" d="M113.157,16.04c14.096-14.352,12.005-34.406,11.913-35.252l-0.591-5.181l-5.659,0.897
	c-48.813,7.739-49.654,43.89-49.641,46.659v15.053c-0.819-1.101-1.734-2.145-2.749-3.133c-10.197-9.947-26.585-10.576-27.283-10.596
	l-4.896-0.151l0.628,4.402c4.048,28.718,25.368,30.954,31.809,30.954c0.983,0,1.819-0.044,2.49-0.097v60.369l31.85,68.741
	l0.053,0.11c1.012,2.032-0.169,3.372-0.873,3.931l-0.322,0.252c-11.79,9.895-31.54,10.067-42.266,9.28
	c-16.523-1.199-28.761-5.444-30.79-6.908c-2.523-2.61-1.601-6.793-1.387-7.617c14.617-33.285,31.033-66.445,31.2-66.78l0.47-0.949
	v-26.7c0-2.681-2.399-4.855-5.352-4.855c-2.952,0-5.349,2.174-5.349,4.855v24.626c-2.811,5.706-17.688,36.077-31.037,66.486
	l-0.154,0.421c-1.228,3.743-1.81,11.568,3.777,17.121c4.698,4.675,24.733,9.543,42.032,10.207c1.444,0.057,2.943,0.091,4.491,0.091
	c13.242,0,29.824-2.338,41.507-12.049c2.982-2.249,7.388-8.117,3.845-15.337l-30.987-66.887V29.589
	C94.102,28.604,105.279,24.059,113.157,16.04z M114.432-12.705c-0.402,5.817-2.236,15.129-9.269,22.291
	c-5.778,5.882-14.197,9.319-25.076,10.248C81.056,12.36,86.313-5.991,114.432-12.705z M44.065,32.662
	c7.487,1.376,20.448,5.742,21.756,19.47C58.864,51.904,48.06,48.795,44.065,32.662z"/>
<rect x="-223" y="-50.5" fill="none" stroke="#8EC44B" stroke-miterlimit="10" width="572" height="289"/>
</svg>
