<?xml version="1.0" encoding="utf-8"?>
<!-- Generator: Adobe Illustrator 17.0.0, SVG Export Plug-In . SVG Version: 6.00 Build 0)  -->
<!DOCTYPE svg PUBLIC "-//W3C//DTD SVG 1.1//EN" "http://www.w3.org/Graphics/SVG/1.1/DTD/svg11.dtd">
<svg version="1.1" id="Layer_1" xmlns="http://www.w3.org/2000/svg" xmlns:xlink="http://www.w3.org/1999/xlink" x="0px" y="0px"
	 width="126px" height="188px" viewBox="0 -5 126 188" style="enable-background:new 0 -5 126 188;" xml:space="preserve">
<style type="text/css">
	.st0{fill:#8EC44B;}
	.st1{fill:none;stroke:#8EC44B;stroke-miterlimit:10;}
</style>
<path class="st0" d="M96.507,37.373c9.331-9.501,7.947-22.776,7.886-23.336l-0.391-3.43l-3.746,0.594
	c-32.313,5.123-32.87,29.054-32.861,30.887v9.965c-0.542-0.729-1.148-1.42-1.82-2.074c-6.75-6.585-17.599-7.001-18.061-7.014
	l-3.241-0.1l0.416,2.914C47.369,64.79,61.482,66.27,65.746,66.27c0.651,0,1.204-0.029,1.648-0.064v39.963l21.084,45.505l0.035,0.073
	c0.67,1.345-0.112,2.232-0.578,2.602l-0.213,0.167c-7.805,6.55-20.879,6.664-27.979,6.143c-10.938-0.794-19.039-3.604-20.382-4.573
	c-1.67-1.728-1.06-4.497-0.918-5.042c9.676-22.034,20.543-43.985,20.654-44.207l0.311-0.628V88.534c0-1.775-1.588-3.214-3.543-3.214
	c-1.954,0-3.541,1.439-3.541,3.214v16.302c-1.861,3.777-11.709,23.882-20.546,44.012l-0.102,0.279
	c-0.813,2.478-1.198,7.658,2.5,11.334c3.11,3.095,16.373,6.317,27.824,6.757c0.956,0.038,1.948,0.06,2.973,0.06
	c8.766,0,19.743-1.548,27.477-7.976c1.974-1.489,4.891-5.373,2.545-10.153l-20.513-44.278V46.342
	C83.893,45.69,91.292,42.681,96.507,37.373z M97.351,18.344c-0.266,3.851-1.48,10.015-6.136,14.756
	c-3.825,3.894-9.398,6.169-16.6,6.784C75.257,34.937,78.737,22.789,97.351,18.344z M50.77,48.376
	c4.956,0.911,13.536,3.801,14.402,12.889C60.566,61.114,53.414,59.056,50.77,48.376z"/>
<rect y="-5" class="st1" width="126" height="188"/>
</svg>
