<?xml version="1.0" encoding="utf-8"?>
<!-- Generator: Adobe Illustrator 17.0.0, SVG Export Plug-In . SVG Version: 6.00 Build 0)  -->
<!DOCTYPE svg PUBLIC "-//W3C//DTD SVG 1.1//EN" "http://www.w3.org/Graphics/SVG/1.1/DTD/svg11.dtd">
<svg version="1.1" id="Layer_1" xmlns="http://www.w3.org/2000/svg" xmlns:xlink="http://www.w3.org/1999/xlink" x="0px" y="0px"
	 width="106px" height="78px" viewBox="-13 1 106 78" style="enable-background:new -13 1 106 78;" xml:space="preserve">
<style type="text/css">
	.st0{fill:#8EC44B;}
	.st1{fill:none;stroke:#8EC44B;stroke-miterlimit:10;}
</style>
<path class="st0" d="M53.036,18.364c3.905-3.976,3.325-9.531,3.3-9.765l-0.163-1.435l-1.568,0.249
	C41.084,9.557,40.851,19.57,40.855,20.338v4.17c-0.227-0.305-0.48-0.594-0.762-0.868c-2.824-2.755-7.364-2.93-7.557-2.935
	l-1.356-0.042l0.174,1.219c1.121,7.955,7.027,8.574,8.811,8.574c0.272,0,0.504-0.012,0.69-0.027v16.722l8.822,19.041l0.015,0.03
	c0.28,0.563-0.047,0.934-0.242,1.089l-0.089,0.07c-3.266,2.741-8.737,2.789-11.708,2.571c-4.577-0.332-7.967-1.508-8.529-1.913
	c-0.699-0.723-0.444-1.882-0.384-2.11c4.049-9.22,8.596-18.405,8.642-18.498l0.13-0.263v-7.396c0-0.743-0.664-1.345-1.482-1.345
	c-0.817,0-1.482,0.602-1.482,1.345v6.822c-0.779,1.58-4.9,9.993-8.598,18.417l-0.043,0.117c-0.34,1.037-0.501,3.204,1.046,4.743
	c1.301,1.295,6.851,2.643,11.643,2.827c0.4,0.016,0.815,0.025,1.244,0.025c3.668,0,8.261-0.648,11.497-3.337
	c0.826-0.623,2.047-2.248,1.065-4.249l-8.584-18.528V22.118C47.758,21.844,50.854,20.585,53.036,18.364z M53.389,10.402
	c-0.111,1.611-0.619,4.191-2.567,6.175c-1.6,1.63-3.933,2.581-6.946,2.839C44.145,17.345,45.6,12.261,53.389,10.402z M33.898,22.968
	c2.074,0.381,5.664,1.591,6.027,5.393C37.997,28.298,35.004,27.437,33.898,22.968z"/>
<rect x="-13" y="1" class="st1" width="106" height="78"/>
</svg>
